<svg version="1.1" xmlns="http://www.w3.org/2000/svg" xmlns:xlink="http://www.w3.org/1999/xlink" width="21.87763" height="19.73683" viewBox="0,0,21.87763,19.73683"><g transform="translate(-226.79666,-169.85805)"><g data-paper-data="{&quot;isPaintingLayer&quot;:true}" fill-rule="nonzero" stroke-linejoin="miter" stroke-miterlimit="10" stroke-dasharray="" stroke-dashoffset="0" style="mix-blend-mode: normal"><path d="M231.75364,174.1156c0,0 1.18075,0.53335 1.62161,0.92557c0.45125,0.40146 1.05545,1.45613 1.05545,1.45613l-3.05381,1.11645c0,0 -0.26857,-1.18961 -0.20587,-1.77179c0.06288,-0.58387 0.58261,-1.72637 0.58261,-1.72637z" data-paper-data="{&quot;index&quot;:null}" fill="#ff9900" stroke="#000000" stroke-width="0.5" stroke-linecap="round"/><path d="M243.14088,174.11559c0,0 0.51973,1.1425 0.58261,1.72637c0.0627,0.58218 -0.20587,1.77179 -0.20587,1.77179l-3.05381,-1.11645c0,0 0.6042,-1.05467 1.05545,-1.45613c0.44086,-0.39222 1.62162,-0.92557 1.62162,-0.92557z" data-paper-data="{&quot;index&quot;:null}" fill="#ff9900" stroke="#000000" stroke-width="0.5" stroke-linecap="round"/><path d="M242.48499,187.9256c0,0 1.41466,-1.46281 2.07061,-2.91383c0.65595,-1.45103 0.62824,-3.34414 1.0203,-3.92357c0.39205,-0.57944 0.99029,-0.63822 0.99029,0.95204c0,1.59027 -0.48657,2.98388 -0.99029,3.95242c-0.50372,0.96854 -2.07061,1.93294 -2.07061,1.93294z" data-paper-data="{&quot;index&quot;:null}" fill="#ff9900" stroke="#000000" stroke-width="0.5" stroke-linecap="round"/><path d="M242.40382,185.05831c0,0 2.36637,3.56357 0.45996,4.21221c-1.90641,0.64864 -3.55412,-3.15946 -3.55412,-3.15946z" data-paper-data="{&quot;index&quot;:null}" fill="#ffffff" stroke="#000000" stroke-width="0.5" stroke-linecap="round"/><path d="M235.4692,185.99252c0,0 -1.64771,3.8081 -3.55412,3.15946c-1.90641,-0.64864 0.45996,-4.21221 0.45996,-4.21221z" data-paper-data="{&quot;index&quot;:null}" fill="#ffffff" stroke="#000000" stroke-width="0.5" stroke-linecap="round"/><path d="M243.6617,177.31767c0.00715,1.39524 0.03903,6.9641 0.05132,9.36342c0.00302,0.5894 -0.77469,1.30214 -1.351,1.29942c-2.4587,-0.01159 -8.64079,-0.04275 -10.11008,-0.04968c-0.56421,-0.00266 -1.10958,-0.64828 -1.10958,-1.13124c0,-2.2586 0,-8.02218 0,-9.42293c0,-0.51541 0.73238,-1.42233 1.41783,-1.42233c2.51286,0 8.16742,0 9.67823,0c0.6704,0 1.42052,0.82114 1.42329,1.36334z" data-paper-data="{&quot;index&quot;:null}" fill="#ffffff" stroke="#000000" stroke-width="0.5" stroke-linecap="round"/><path d="M237.24519,182.17703c-1.84127,-1.75704 -2.15757,-5.98934 -2.15757,-5.98934c0,0 5.61122,-0.05556 6.96586,-0.05556c0.53133,0 1.35618,0.77007 1.35618,1.3038c0,1.31309 0,6.63753 0,6.63753c0,0 -4.3232,-0.1394 -6.16447,-1.89644z" data-paper-data="{&quot;index&quot;:null}" fill="#ff9900" stroke="none" stroke-width="0" stroke-linecap="round"/><path d="M239.86509,180.51764c-0.45962,0 -0.83221,-0.3582 -0.83221,-0.80006c0,-0.44186 0.3726,-0.80006 0.83221,-0.80006c0.45961,0 0.8322,0.3582 0.8322,0.80006c0,0.44186 -0.37259,0.80006 -0.8322,0.80006z" data-paper-data="{&quot;index&quot;:null}" fill="#000000" stroke="#000000" stroke-width="0.5" stroke-linecap="butt"/><path d="M233.08417,180.45837c-0.45962,0 -0.83221,-0.3582 -0.83221,-0.80006c0,-0.44186 0.3726,-0.80006 0.83221,-0.80006c0.45961,0 0.8322,0.3582 0.8322,0.80006c0,0.44186 -0.37259,0.80006 -0.8322,0.80006z" data-paper-data="{&quot;index&quot;:null}" fill="#000000" stroke="#000000" stroke-width="0.5" stroke-linecap="butt"/><path d="M232.73428,181.74956c0.52771,0 0.9555,0.24765 0.9555,0.55313c0,0.30549 -0.42779,0.55313 -0.9555,0.55313c-0.5277,0 -0.95549,-0.24765 -0.95549,-0.55313c0,-0.30549 0.42778,-0.55313 0.95549,-0.55313z" data-paper-data="{&quot;index&quot;:null}" fill="#ff80cc" stroke="#ff80cc" stroke-width="0.5" stroke-linecap="butt"/><path d="M240.425,181.76068c0.52771,0 0.9555,0.24765 0.9555,0.55313c0,0.30549 -0.42779,0.55313 -0.9555,0.55313c-0.5277,0 -0.95549,-0.24765 -0.95549,-0.55313c0,-0.30549 0.42778,-0.55313 0.95549,-0.55313z" data-paper-data="{&quot;index&quot;:null}" fill="#ff80cc" stroke="#ff80cc" stroke-width="0.5" stroke-linecap="butt"/><path d="M238.66961,181.85205c0,0 -0.34275,1.27669 -0.98628,1.27057c-0.64354,-0.00612 -1.00601,-0.63806 -1.00601,-0.63806c0,0 -0.39673,0.63806 -1.06518,0.63806c-0.66846,0 -0.94682,-1.28953 -0.94682,-1.28953" data-paper-data="{&quot;index&quot;:null}" fill="none" stroke="#000000" stroke-width="0.5" stroke-linecap="round"/><path d="M246.06087,173.11184c0,0 -0.44602,0.43133 -0.5648,0.62833c-0.12015,0.19926 -0.15203,0.56051 -0.15203,0.56051c0,0 0.40808,0.54485 0.25593,0.90689c-0.15216,0.36205 -0.44277,0.58207 -0.44277,0.58207c0,0 0.12867,0.36935 0.28831,0.76149c0.16969,0.41686 -0.24404,1.31269 -0.39179,1.51339c-0.28674,0.38949 -0.50796,0.54947 -0.96894,0.68378c-0.46099,0.13431 -0.82894,0.09973 -1.35186,-0.00763c-0.52292,-0.10736 -0.60206,-0.02528 -0.9938,-0.24233c-0.19312,-0.107 -1.07776,-0.7141 -1.13347,-0.78287c-0.24893,-0.30725 -0.39632,-0.83054 -0.42245,-1.06861c-0.06305,-0.57464 -0.08653,-1.16215 0.09863,-1.44803c0.18517,-0.28588 0.18736,-0.53471 0.67824,-0.93867c0.49088,-0.40395 0.9757,-0.49812 0.9757,-0.49812c0,0 0.33009,-0.59249 0.54902,-1.20019c0.13664,-0.37929 0.47498,-0.63945 0.71798,-0.81408c0.14634,-0.10516 0.26485,-0.20698 0.26485,-0.20698c0,0 0.13033,-0.37564 0.17517,-0.58192c0.04237,-0.19491 0.08687,-0.62359 0.08687,-0.62359c0,0 0.20261,0.24707 0.3733,0.53822c0.1228,0.20948 0.20626,0.43623 0.29291,0.63629c0.20708,0.47814 0.01446,0.6649 -0.03305,0.95799c-0.0475,0.2931 -0.41361,1.08128 -0.41361,1.08128l0.34319,0.23562c0,0 0.48332,-0.34146 0.7409,-0.43945c0.31877,-0.12128 1.02757,-0.23337 1.02757,-0.23337z" data-paper-data="{&quot;index&quot;:null}" fill="#47bbff" stroke="#b9e5ff" stroke-width="0.25" stroke-linecap="round"/><path d="M244.30358,176.07914c0.043,0.2 0.16834,0.42119 0.10718,0.672c-0.06116,0.25081 -0.08192,0.69476 -0.48377,0.87237c-0.40184,0.17761 -0.86911,0.14258 -1.39968,-0.03991c-0.53058,-0.18249 -0.83344,-0.30895 -1.03646,-0.64025c-0.20303,-0.3313 -0.37589,-0.6204 -0.39596,-1.04382c-0.02008,-0.42342 0.58447,-1.06309 0.58447,-1.06309c0,0 0.09704,0.22126 0.20084,0.32926c0.11179,0.11632 0.44772,0.34558 0.44772,0.34558c0,0 -0.05621,-0.58441 0.08659,-0.8509c0.11751,-0.21932 0.21083,-0.43225 0.48475,-0.60291c0.27392,-0.17066 0.47547,-0.61604 0.47547,-0.61604l0.02121,1.46914l0.24753,0.31869l0.99865,-0.31623l-0.48538,0.65668c0,0 0.10382,0.30944 0.14682,0.50943z" data-paper-data="{&quot;index&quot;:null}" fill="#abffff" stroke="#b9e5ff" stroke-width="0.25" stroke-linecap="round"/><path d="M233.0749,171.78379c0,0 -0.24718,0.56912 -0.2816,0.79657c-0.03482,0.23005 0.07387,0.57603 0.07387,0.57603c0,0 0.58542,0.34738 0.58327,0.74009c-0.00214,0.3927 -0.18652,0.70714 -0.18652,0.70714c0,0 0.26013,0.29207 0.55759,0.59337c0.3162,0.32029 0.27648,1.30625 0.21671,1.54819c-0.116,0.46954 -0.25922,0.70195 -0.63381,1.00233c-0.37459,0.30038 -0.72779,0.40914 -1.25203,0.50991c-0.52424,0.10077 -0.56597,0.20687 -1.01094,0.15611c-0.21936,-0.02502 -1.26891,-0.24768 -1.34669,-0.28992c-0.34751,-0.18871 -0.6838,-0.61586 -0.79898,-0.82585c-0.278,-0.50685 -0.52437,-1.04073 -0.4626,-1.37569c0.06177,-0.33496 -0.03135,-0.56572 0.26774,-1.12669c0.2991,-0.56097 0.71106,-0.83336 0.71106,-0.83336c0,0 0.07842,-0.67369 0.04833,-1.31892c-0.01878,-0.40271 0.19436,-0.77249 0.35211,-1.02677c0.095,-0.15313 0.16557,-0.29252 0.16557,-0.29252c0,0 -0.02322,-0.39694 -0.06067,-0.60468c-0.03538,-0.1963 -0.1582,-0.60941 -0.1582,-0.60941c0,0 0.28169,0.15082 0.55075,0.35457c0.19358,0.14659 0.35739,0.32419 0.51396,0.47591c0.37418,0.36261 0.26762,0.60884 0.3358,0.89782c0.06819,0.28899 0.0313,1.15726 0.0313,1.15726l0.40721,0.08648c0,0 0.31602,-0.50032 0.51654,-0.68936c0.24816,-0.23396 0.86023,-0.60859 0.86023,-0.60859z" data-paper-data="{&quot;index&quot;:null}" fill="#47bbff" stroke="#b9e5ff" stroke-width="0.25" stroke-linecap="round"/><path d="M232.58588,175.19756c0.11621,0.16835 0.3166,0.32481 0.356,0.57994c0.0394,0.25513 0.18997,0.67327 -0.11341,0.99105c-0.30338,0.31778 -0.74852,0.4641 -1.30855,0.49837c-0.56004,0.03427 -0.88823,0.03324 -1.20252,-0.19524c-0.31429,-0.22848 -0.58458,-0.42951 -0.76504,-0.81307c-0.18046,-0.38355 0.13353,-1.20579 0.13353,-1.20579c0,0 0.17428,0.16733 0.31149,0.22743c0.14778,0.06473 0.54584,0.14811 0.54584,0.14811c0,0 -0.27541,-0.51849 -0.24538,-0.81934c0.02472,-0.24759 0.02951,-0.48002 0.21735,-0.74246c0.18784,-0.26244 0.20376,-0.75104 0.20376,-0.75104l0.5814,1.34936l0.35059,0.19983l0.80182,-0.67408l-0.19737,0.79237c0,0 0.21426,0.24622 0.33047,0.41457z" data-paper-data="{&quot;index&quot;:null}" fill="#abffff" stroke="#b9e5ff" stroke-width="0.25" stroke-linecap="round"/><path d="M229.848,182.52339c0,0 -0.18386,0.31333 -0.21993,0.44309c-0.03649,0.13126 0.00224,0.34002 0.00224,0.34002c0,0 0.31572,0.24325 0.28673,0.47135c-0.02898,0.2281 -0.15836,0.39783 -0.15836,0.39783c0,0 0.13057,0.18813 0.28217,0.38426c0.16116,0.20849 0.06843,0.77874 0.0166,0.91514c-0.1006,0.26471 -0.20026,0.38968 -0.43919,0.5378c-0.23893,0.14812 -0.45191,0.18639 -0.76372,0.20793c-0.31181,0.02154 -0.34356,0.08026 -0.5986,0.01933c-0.12573,-0.03003 -0.72001,-0.23359 -0.76224,-0.26363c-0.18865,-0.13422 -0.35394,-0.40624 -0.40605,-0.53643c-0.12577,-0.31423 -0.23125,-0.64193 -0.17169,-0.83225c0.05957,-0.19032 0.02173,-0.33103 0.2352,-0.63594c0.21346,-0.30492 0.47214,-0.43414 0.47214,-0.43414c0,0 0.09317,-0.38601 0.12126,-0.76316c0.01753,-0.23539 0.16753,-0.43526 0.27718,-0.57191c0.06603,-0.08229 0.11689,-0.15832 0.11689,-0.15832c0,0 0.01454,-0.23235 0.00745,-0.35574c-0.0067,-0.1166 -0.0489,-0.36538 -0.0489,-0.36538c0,0 0.15307,0.10755 0.29506,0.24498c0.10215,0.09887 0.18482,0.21367 0.26511,0.31291c0.19186,0.23718 0.11253,0.37277 0.13175,0.54555c0.01922,0.17278 -0.06355,0.67483 -0.06355,0.67483l0.23057,0.07903c0,0 0.21902,-0.26848 0.34892,-0.36419c0.16077,-0.11845 0.54297,-0.29296 0.54297,-0.29296z" data-paper-data="{&quot;index&quot;:null}" fill="#47bbff" stroke="#b9e5ff" stroke-width="0.25" stroke-linecap="round"/><path d="M229.32266,184.473c0.05565,0.10605 0.16107,0.21114 0.16595,0.36221c0.00488,0.15107 0.06286,0.40474 -0.13592,0.568c-0.19878,0.16326 -0.46784,0.21687 -0.79576,0.19723c-0.32793,-0.01964 -0.5186,-0.04342 -0.68513,-0.19842c-0.16653,-0.155 -0.30942,-0.29094 -0.38722,-0.52661c-0.0778,-0.23568 0.16278,-0.6914 0.16278,-0.6914c0,0 0.08947,0.10957 0.16497,0.15419c0.08132,0.04806 0.3068,0.12464 0.3068,0.12464c0,0 -0.12344,-0.32082 -0.08474,-0.49355c0.03185,-0.14216 0.05106,-0.27692 0.17877,-0.41618c0.12771,-0.13926 0.17148,-0.42212 0.17148,-0.42212l0.2426,0.82534l0.18966,0.1409l0.51364,-0.33515l-0.17068,0.4466c0,0 0.10714,0.15825 0.16279,0.2643z" data-paper-data="{&quot;index&quot;:null}" fill="#abffff" stroke="#b9e5ff" stroke-width="0.25" stroke-linecap="round"/><path d="M239.63372,171.52339c0,0 -0.18386,0.31333 -0.21993,0.44309c-0.03648,0.13126 0.00225,0.34002 0.00225,0.34002c0,0 0.31572,0.24325 0.28673,0.47135c-0.02899,0.2281 -0.15836,0.39783 -0.15836,0.39783c0,0 0.13057,0.18813 0.28217,0.38426c0.16116,0.20849 0.06843,0.77874 0.0166,0.91514c-0.10059,0.26471 -0.20025,0.38968 -0.43918,0.5378c-0.23893,0.14812 -0.45191,0.18639 -0.76372,0.20793c-0.31181,0.02154 -0.34356,0.08026 -0.5986,0.01933c-0.12573,-0.03003 -0.72001,-0.23359 -0.76224,-0.26363c-0.18865,-0.13422 -0.35394,-0.40624 -0.40605,-0.53643c-0.12577,-0.31423 -0.23125,-0.64193 -0.17169,-0.83225c0.05957,-0.19032 0.02173,-0.33103 0.2352,-0.63594c0.21347,-0.30492 0.47215,-0.43414 0.47215,-0.43414c0,0 0.09316,-0.38601 0.12125,-0.76316c0.01753,-0.23539 0.16753,-0.43526 0.27718,-0.57191c0.06603,-0.08229 0.11689,-0.15832 0.11689,-0.15832c0,0 0.01454,-0.23235 0.00745,-0.35574c-0.0067,-0.1166 -0.0489,-0.36538 -0.0489,-0.36538c0,0 0.15307,0.10755 0.29506,0.24498c0.10216,0.09887 0.18482,0.21367 0.26511,0.31291c0.19186,0.23718 0.11253,0.37277 0.13175,0.54555c0.01922,0.17278 -0.06355,0.67483 -0.06355,0.67483l0.23057,0.07903c0,0 0.21901,-0.26848 0.34891,-0.36419c0.16077,-0.11845 0.54297,-0.29296 0.54297,-0.29296z" data-paper-data="{&quot;index&quot;:null}" fill="#47bbff" stroke="#b9e5ff" stroke-width="0.25" stroke-linecap="round"/><path d="M239.10837,173.473c0.05565,0.10605 0.16107,0.21114 0.16595,0.36221c0.00488,0.15107 0.06287,0.40474 -0.13591,0.568c-0.19878,0.16326 -0.46784,0.21687 -0.79576,0.19723c-0.32792,-0.01964 -0.5186,-0.04342 -0.68513,-0.19842c-0.16653,-0.155 -0.30942,-0.29094 -0.38722,-0.52661c-0.0778,-0.23568 0.16278,-0.6914 0.16278,-0.6914c0,0 0.08947,0.10957 0.16497,0.15419c0.08132,0.04806 0.30679,0.12464 0.30679,0.12464c0,0 -0.12344,-0.32082 -0.08474,-0.49355c0.03186,-0.14216 0.05107,-0.27692 0.17878,-0.41618c0.12771,-0.13926 0.17148,-0.42212 0.17148,-0.42212l0.2426,0.82534l0.18966,0.1409l0.51364,-0.33515l-0.17069,0.4466c0,0 0.10714,0.15825 0.16279,0.2643z" data-paper-data="{&quot;index&quot;:null}" fill="#abffff" stroke="#b9e5ff" stroke-width="0.25" stroke-linecap="round"/><path d="M248.348,182.23767c0,0 -0.18386,0.31333 -0.21993,0.44309c-0.03649,0.13126 0.00224,0.34002 0.00224,0.34002c0,0 0.31572,0.24325 0.28673,0.47135c-0.02898,0.2281 -0.15836,0.39783 -0.15836,0.39783c0,0 0.13057,0.18813 0.28217,0.38426c0.16116,0.20849 0.06843,0.77874 0.0166,0.91514c-0.1006,0.26471 -0.20026,0.38968 -0.43919,0.5378c-0.23893,0.14812 -0.45191,0.18639 -0.76372,0.20793c-0.31181,0.02154 -0.34356,0.08026 -0.5986,0.01933c-0.12573,-0.03003 -0.72001,-0.23359 -0.76224,-0.26363c-0.18865,-0.13422 -0.35394,-0.40624 -0.40605,-0.53643c-0.12577,-0.31423 -0.23125,-0.64193 -0.17169,-0.83225c0.05957,-0.19032 0.02173,-0.33103 0.2352,-0.63594c0.21346,-0.30492 0.47214,-0.43414 0.47214,-0.43414c0,0 0.09317,-0.38602 0.12126,-0.76317c0.01753,-0.23539 0.16753,-0.43525 0.27718,-0.5719c0.06603,-0.08229 0.11689,-0.15833 0.11689,-0.15833c0,0 0.01454,-0.23234 0.00745,-0.35573c-0.0067,-0.1166 -0.0489,-0.36538 -0.0489,-0.36538c0,0 0.15307,0.10755 0.29506,0.24498c0.10215,0.09888 0.18482,0.21367 0.26511,0.31291c0.19186,0.23718 0.11253,0.37277 0.13175,0.54555c0.01922,0.17278 -0.06355,0.67483 -0.06355,0.67483l0.23057,0.07903c0,0 0.21902,-0.26847 0.34892,-0.36418c0.16077,-0.11845 0.54297,-0.29296 0.54297,-0.29296z" data-paper-data="{&quot;index&quot;:null}" fill="#47bbff" stroke="#b9e5ff" stroke-width="0.25" stroke-linecap="round"/><path d="M247.82266,184.18727c0.05565,0.10606 0.16107,0.21115 0.16595,0.36222c0.00488,0.15107 0.06286,0.40474 -0.13592,0.568c-0.19878,0.16327 -0.46784,0.21687 -0.79576,0.19723c-0.32793,-0.01964 -0.5186,-0.04342 -0.68513,-0.19842c-0.16653,-0.155 -0.30942,-0.29094 -0.38722,-0.52661c-0.0778,-0.23568 0.16278,-0.6914 0.16278,-0.6914c0,0 0.08947,0.10958 0.16497,0.1542c0.08132,0.04806 0.3068,0.12463 0.3068,0.12463c0,0 -0.12344,-0.32082 -0.08474,-0.49355c0.03185,-0.14215 0.05106,-0.27691 0.17877,-0.41617c0.12771,-0.13926 0.17148,-0.42212 0.17148,-0.42212l0.2426,0.82533l0.18966,0.14091l0.51364,-0.33515l-0.17068,0.4466c0,0 0.10714,0.15825 0.16279,0.2643z" data-paper-data="{&quot;index&quot;:null}" fill="#abffff" stroke="#b9e5ff" stroke-width="0.25" stroke-linecap="round"/><path d="M233.97801,184.96242c0,0 0.00679,1.59892 -0.84445,1.60012c-0.81453,0.00115 -0.81997,-1.61189 -0.81997,-1.61189" data-paper-data="{&quot;index&quot;:null}" fill="#ffffff" stroke="#000000" stroke-width="0.5" stroke-linecap="round"/><path d="M241.19046,184.96241c0,0 0.00679,1.59892 -0.84445,1.60012c-0.81453,0.00115 -0.81997,-1.61189 -0.81997,-1.61189" data-paper-data="{&quot;index&quot;:null}" fill="#ffffff" stroke="#000000" stroke-width="0.5" stroke-linecap="round"/></g></g></svg>