<svg version="1.1" xmlns="http://www.w3.org/2000/svg" xmlns:xlink="http://www.w3.org/1999/xlink" width="22.42708" height="17.93828" viewBox="0,0,22.42708,17.93828"><defs><linearGradient x1="231.55709" y1="184.16362" x2="231.63844" y2="189.53114" gradientUnits="userSpaceOnUse" id="color-1"><stop offset="0" stop-color="#6dcddd"/><stop offset="1" stop-color="#1893b6"/></linearGradient><linearGradient x1="231.55709" y1="184.16362" x2="231.63844" y2="189.53114" gradientUnits="userSpaceOnUse" id="color-2"><stop offset="0" stop-color="#65c8da"/><stop offset="1" stop-color="#1e97b9"/></linearGradient><linearGradient x1="233.43658" y1="179.32541" x2="232.18952" y2="187.94985" gradientUnits="userSpaceOnUse" id="color-3"><stop offset="0" stop-color="#6dcddd"/><stop offset="1" stop-color="#1893b6"/></linearGradient><linearGradient x1="233.43658" y1="179.32541" x2="232.18952" y2="187.94985" gradientUnits="userSpaceOnUse" id="color-4"><stop offset="0" stop-color="#65c8da"/><stop offset="1" stop-color="#1e97b9"/></linearGradient><linearGradient x1="242.72746" y1="184.4579" x2="242.72746" y2="190.09852" gradientUnits="userSpaceOnUse" id="color-5"><stop offset="0" stop-color="#6dcddd"/><stop offset="1" stop-color="#1893b6"/></linearGradient><linearGradient x1="242.72746" y1="184.4579" x2="242.72746" y2="190.09852" gradientUnits="userSpaceOnUse" id="color-6"><stop offset="0" stop-color="#65c8da"/><stop offset="1" stop-color="#1e97b9"/></linearGradient><linearGradient x1="241.00069" y1="179.15521" x2="241.98643" y2="187.81341" gradientUnits="userSpaceOnUse" id="color-7"><stop offset="0" stop-color="#6dcddd"/><stop offset="1" stop-color="#1893b6"/></linearGradient><linearGradient x1="241.00069" y1="179.15521" x2="241.98643" y2="187.81341" gradientUnits="userSpaceOnUse" id="color-8"><stop offset="0" stop-color="#65c8da"/><stop offset="1" stop-color="#1e97b9"/></linearGradient><linearGradient x1="231.74323" y1="184.56196" x2="231.74323" y2="189.26065" gradientUnits="userSpaceOnUse" id="color-9"><stop offset="0" stop-color="#ffffff"/><stop offset="1" stop-color="#ffe9bb"/></linearGradient><linearGradient x1="242.63874" y1="184.81985" x2="242.63874" y2="189.75702" gradientUnits="userSpaceOnUse" id="color-10"><stop offset="0" stop-color="#ffffff"/><stop offset="1" stop-color="#ffe9bb"/></linearGradient><linearGradient x1="241.25728" y1="179.825" x2="241.25728" y2="187.45253" gradientUnits="userSpaceOnUse" id="color-11"><stop offset="0" stop-color="#ffffff"/><stop offset="1" stop-color="#ffe9bb"/></linearGradient><linearGradient x1="233.05498" y1="179.73994" x2="233.05498" y2="187.3676" gradientUnits="userSpaceOnUse" id="color-12"><stop offset="0" stop-color="#ffffff"/><stop offset="1" stop-color="#ffe9bb"/></linearGradient><linearGradient x1="236.87689" y1="180.39417" x2="236.87689" y2="188.47048" gradientUnits="userSpaceOnUse" id="color-13"><stop offset="0" stop-color="#61c5d8"/><stop offset="1" stop-color="#239bbb"/></linearGradient><linearGradient x1="236.87689" y1="180.39417" x2="236.87689" y2="188.47048" gradientUnits="userSpaceOnUse" id="color-14"><stop offset="0" stop-color="#5ec3d6"/><stop offset="1" stop-color="#1d96b8"/></linearGradient><linearGradient x1="236.83813" y1="182.04397" x2="236.83813" y2="188.37758" gradientUnits="userSpaceOnUse" id="color-15"><stop offset="0" stop-color="#61c5d8"/><stop offset="1" stop-color="#239bbb"/></linearGradient><linearGradient x1="236.83813" y1="182.04397" x2="236.83813" y2="188.37758" gradientUnits="userSpaceOnUse" id="color-16"><stop offset="0" stop-color="#5ec3d6"/><stop offset="1" stop-color="#1d96b8"/></linearGradient><linearGradient x1="233.6693" y1="185.06991" x2="233.6693" y2="188.44102" gradientUnits="userSpaceOnUse" id="color-17"><stop offset="0" stop-color="#61c5d8"/><stop offset="1" stop-color="#239bbb"/></linearGradient><linearGradient x1="233.6693" y1="185.06991" x2="233.6693" y2="188.44102" gradientUnits="userSpaceOnUse" id="color-18"><stop offset="0" stop-color="#5ec3d6"/><stop offset="1" stop-color="#1d96b8"/></linearGradient><linearGradient x1="239.9735" y1="185.06991" x2="239.9735" y2="188.44102" gradientUnits="userSpaceOnUse" id="color-19"><stop offset="0" stop-color="#61c5d8"/><stop offset="1" stop-color="#239bbb"/></linearGradient><linearGradient x1="239.9735" y1="185.06991" x2="239.9735" y2="188.44102" gradientUnits="userSpaceOnUse" id="color-20"><stop offset="0" stop-color="#5ec3d6"/><stop offset="1" stop-color="#1d96b8"/></linearGradient><linearGradient x1="233.42467" y1="172.31177" x2="233.42467" y2="177.24229" gradientUnits="userSpaceOnUse" id="color-21"><stop offset="0" stop-color="#6dcddd"/><stop offset="1" stop-color="#1893b6"/></linearGradient><linearGradient x1="233.42467" y1="172.31177" x2="233.42467" y2="177.24229" gradientUnits="userSpaceOnUse" id="color-22"><stop offset="0" stop-color="#65c8da"/><stop offset="1" stop-color="#1e97b9"/></linearGradient><linearGradient x1="239.53658" y1="172.58346" x2="239.53658" y2="177.51396" gradientUnits="userSpaceOnUse" id="color-23"><stop offset="0" stop-color="#6dcddd"/><stop offset="1" stop-color="#1893b6"/></linearGradient><linearGradient x1="239.53658" y1="172.58346" x2="239.53658" y2="177.51396" gradientUnits="userSpaceOnUse" id="color-24"><stop offset="0" stop-color="#65c8da"/><stop offset="1" stop-color="#1e97b9"/></linearGradient><linearGradient x1="236.29155" y1="174.03308" x2="236.29155" y2="182.05563" gradientUnits="userSpaceOnUse" id="color-25"><stop offset="0" stop-color="#6dcddd"/><stop offset="1" stop-color="#1893b6"/></linearGradient><linearGradient x1="236.29155" y1="174.03308" x2="236.29155" y2="182.05563" gradientUnits="userSpaceOnUse" id="color-26"><stop offset="0" stop-color="#65c8da"/><stop offset="1" stop-color="#1e97b9"/></linearGradient><linearGradient x1="231.73396" y1="175.78803" x2="231.73396" y2="181.38714" gradientUnits="userSpaceOnUse" id="color-27"><stop offset="0" stop-color="#6dcddd"/><stop offset="1" stop-color="#1893b6"/></linearGradient><linearGradient x1="231.73396" y1="175.78803" x2="231.73396" y2="181.38714" gradientUnits="userSpaceOnUse" id="color-28"><stop offset="0" stop-color="#65c8da"/><stop offset="1" stop-color="#1e97b9"/></linearGradient><linearGradient x1="241.07895" y1="175.78803" x2="241.07895" y2="181.30352" gradientUnits="userSpaceOnUse" id="color-29"><stop offset="0" stop-color="#6dcddd"/><stop offset="1" stop-color="#1893b6"/></linearGradient><linearGradient x1="241.07895" y1="175.78803" x2="241.07895" y2="181.30352" gradientUnits="userSpaceOnUse" id="color-30"><stop offset="0" stop-color="#65c8da"/><stop offset="1" stop-color="#1e97b9"/></linearGradient><linearGradient x1="238.84799" y1="173.97729" x2="238.84799" y2="178.29307" gradientUnits="userSpaceOnUse" id="color-31"><stop offset="0" stop-color="#ffffff"/><stop offset="1" stop-color="#ffe187"/></linearGradient><linearGradient x1="238.84799" y1="173.97729" x2="238.84799" y2="178.29307" gradientUnits="userSpaceOnUse" id="color-32"><stop offset="0" stop-color="#ffffff"/><stop offset="1" stop-color="#ffe187"/></linearGradient><linearGradient x1="234.03298" y1="173.8374" x2="234.03298" y2="178.15319" gradientUnits="userSpaceOnUse" id="color-33"><stop offset="0" stop-color="#ffffff"/><stop offset="1" stop-color="#ffe187"/></linearGradient><linearGradient x1="234.03298" y1="173.8374" x2="234.03298" y2="178.15319" gradientUnits="userSpaceOnUse" id="color-34"><stop offset="0" stop-color="#ffffff"/><stop offset="1" stop-color="#ffe187"/></linearGradient><linearGradient x1="236.87679" y1="180.58603" x2="236.87679" y2="187.99314" gradientUnits="userSpaceOnUse" id="color-35"><stop offset="0" stop-color="#ffffff"/><stop offset="1" stop-color="#ffe9bb"/></linearGradient><linearGradient x1="236.87679" y1="180.58603" x2="236.87679" y2="187.99314" gradientUnits="userSpaceOnUse" id="color-36"><stop offset="0" stop-color="#ffffff"/><stop offset="1" stop-color="#ffe9bb"/></linearGradient><linearGradient x1="236.79173" y1="182.09916" x2="236.79173" y2="187.90798" gradientUnits="userSpaceOnUse" id="color-37"><stop offset="0" stop-color="#ffffff"/><stop offset="1" stop-color="#ffe9bb"/></linearGradient><linearGradient x1="233.8435" y1="185.12615" x2="233.8435" y2="188.21784" gradientUnits="userSpaceOnUse" id="color-38"><stop offset="0" stop-color="#ffffff"/><stop offset="1" stop-color="#ffe9bb"/></linearGradient><linearGradient x1="233.8435" y1="185.12615" x2="233.8435" y2="188.21784" gradientUnits="userSpaceOnUse" id="color-39"><stop offset="0" stop-color="#ffffff"/><stop offset="1" stop-color="#ffe9bb"/></linearGradient><linearGradient x1="239.79327" y1="185.12615" x2="239.79327" y2="188.21784" gradientUnits="userSpaceOnUse" id="color-40"><stop offset="0" stop-color="#ffffff"/><stop offset="1" stop-color="#ffe9bb"/></linearGradient><linearGradient x1="239.79327" y1="185.12615" x2="239.79327" y2="188.21784" gradientUnits="userSpaceOnUse" id="color-41"><stop offset="0" stop-color="#ffffff"/><stop offset="1" stop-color="#ffe9bb"/></linearGradient><linearGradient x1="236.3628" y1="174.59891" x2="236.3628" y2="181.62111" gradientUnits="userSpaceOnUse" id="color-42"><stop offset="0" stop-color="#ffffff"/><stop offset="1" stop-color="#ffe9bb"/></linearGradient><linearGradient x1="232.45122" y1="176.135" x2="232.45122" y2="181.03589" gradientUnits="userSpaceOnUse" id="color-43"><stop offset="0" stop-color="#ffffff"/><stop offset="1" stop-color="#ffe9bb"/></linearGradient><linearGradient x1="232.45122" y1="176.135" x2="232.45122" y2="181.03589" gradientUnits="userSpaceOnUse" id="color-44"><stop offset="0" stop-color="#ffffff"/><stop offset="1" stop-color="#ffe9bb"/></linearGradient><linearGradient x1="240.47163" y1="176.135" x2="240.47163" y2="180.96274" gradientUnits="userSpaceOnUse" id="color-45"><stop offset="0" stop-color="#ffffff"/><stop offset="1" stop-color="#ffe9bb"/></linearGradient><linearGradient x1="240.47163" y1="176.135" x2="240.47163" y2="180.96274" gradientUnits="userSpaceOnUse" id="color-46"><stop offset="0" stop-color="#ffffff"/><stop offset="1" stop-color="#ffe9bb"/></linearGradient></defs><g transform="translate(-225.93031,-172.18579)"><g data-paper-data="{&quot;isPaintingLayer&quot;:true}" fill-rule="nonzero" stroke-linejoin="miter" stroke-miterlimit="10" stroke-dasharray="" stroke-dashoffset="0" style="mix-blend-mode: normal"><path d="M227.59077,188.71682l-1.61031,-1.36968l2.46959,-0.81134l1.71761,-0.75877l2.46698,-1.02842l2.11763,-0.6334l1.55465,0.41525l0.90353,1.5085l-0.77649,1.7025l-1.88841,1.2819l-1.72284,0.32473l-1.41607,0.06054l-1.37075,0.1469z" fill="url(#color-1)" stroke="url(#color-2)" stroke-width="0.05" stroke-linecap="round"/><path d="M228.97497,180.77764l0.5499,-2.01783l1.82454,1.8318l1.44724,1.18972l2.02223,1.73545l1.50742,1.59771l0.30011,1.55477l-0.98655,1.45307l-1.89971,0.05174l-2.0013,-1.11395l-1.05174,-1.38253l-0.6755,-1.22576l-0.73462,-1.14844z" fill="url(#color-3)" stroke="url(#color-4)" stroke-width="0.05" stroke-linecap="round"/><path d="M244.15377,190.09852l-1.36255,-0.20649l-1.41191,-0.12228l-1.70619,-0.39966l-1.82763,-1.3629l-0.69739,-1.73473l0.97204,-1.46746l1.57213,-0.34709l2.08634,0.72522l2.41738,1.135l1.68097,0.83299l2.42986,0.91828l-1.67169,1.29808z" fill="url(#color-5)" stroke="url(#color-6)" stroke-width="0.05" stroke-linecap="round"/><path d="M245.03815,183.25712l-0.76912,1.1256l-0.71214,1.20494l-1.09313,1.35006l-2.03401,1.05293l-1.89734,-0.10908l-0.94207,-1.48233l0.34697,-1.54501l1.555,-1.55132l2.07374,-1.67359l1.48256,-1.14535l1.87914,-1.77589l0.48864,2.03353z" fill="url(#color-7)" stroke="url(#color-8)" stroke-width="0.05" stroke-linecap="round"/><g data-paper-data="{&quot;index&quot;:null}" stroke-linecap="round"><path d="M228.2802,188.49427l-1.36409,-1.22017l2.12988,-0.67729l1.48387,-0.64137l2.13059,-0.86725l1.82537,-0.52622l1.32877,0.38408l0.75579,1.33221l-0.68859,1.47971l-1.6372,1.09682l-1.48268,0.26133l-1.216,0.03426l-1.1783,0.11026z" fill="url(#color-9)" stroke="#ffffff" stroke-width="0.05"/><path d="M228.24178,188.51497l-1.06851,-0.88985l-0.30915,-0.40002l1.21291,-0.38039l0.65064,-0.17521l-0.09088,0.70893l-0.06851,0.67955z" fill="#ff5454" stroke="none" stroke-width="0.5"/></g><g data-paper-data="{&quot;index&quot;:null}" stroke-linecap="round"><path d="M243.86283,189.75702l-1.16949,-0.18068l-1.21172,-0.10717l-1.46437,-0.34971l-1.56856,-1.19305l-0.59855,-1.51837l0.8343,-1.28452l1.34934,-0.30379l1.79064,0.63482l2.07469,0.99345l1.44272,0.72915l2.08539,0.80385l-1.43475,1.13607z" fill="url(#color-10)" stroke="#ffffff" stroke-width="0.05"/><path d="M245.73113,188.66437l-0.02771,-0.6824l-0.04817,-0.71321l0.63899,0.21399l1.18781,0.45248l-0.33246,0.38063l-1.11989,0.82431z" fill="#ff5454" stroke="none" stroke-width="0.5"/></g><g data-paper-data="{&quot;index&quot;:null}" stroke-linecap="round"><path d="M244.30197,183.79213l-0.76507,0.90281l-0.72427,0.97739l-1.06327,1.06589l-1.83667,0.71428l-1.60746,-0.28274l-0.65945,-1.38241l0.44594,-1.30926l1.47662,-1.19531l1.931,-1.25014l1.37539,-0.84929l1.77482,-1.35838l0.21934,1.81693z" fill="url(#color-11)" stroke="#ffffff" stroke-width="0.05"/><path d="M244.34623,181.62825l-0.5964,-0.33282l-0.63328,-0.33151l0.51623,-0.43309l1.00642,-0.77649l0.15083,0.48233l0.11788,1.38562z" fill="#ff5454" stroke="none" stroke-width="0.5"/></g><g stroke-linecap="round"><path d="M229.44339,181.557l0.21934,-1.81705l1.77482,1.3585l1.37539,0.84929l1.931,1.25014l1.47662,1.19519l0.44594,1.30926l-0.65945,1.38241l-1.60746,0.28286l-1.83667,-0.71428l-1.06327,-1.06601l-0.72427,-0.97727l-0.76507,-0.90281z" fill="url(#color-12)" stroke="#ffffff" stroke-width="0.05"/><path d="M229.40437,181.53725l0.11776,-1.3855l0.15094,-0.48233l1.00642,0.77649l0.51623,0.43309l-0.63328,0.33151l-0.5964,0.33282z" fill="#ff5454" stroke="none" stroke-width="0.5"/></g><g><path d="M240.32305,186.87515c0,0 -0.06257,0.42108 -0.09016,0.60723c-0.02355,0.15832 -0.0653,0.43975 -0.0653,0.43975l-1.34732,0.39883l-2.33209,0.14952l-1.76197,-0.19936l-1.34744,-0.44867l-0.15546,-0.99714l0.10372,-3.24049l-0.5543,0.2737l-0.87902,-0.01975c0,0 -0.19698,-0.10337 -0.29511,-0.22909c-0.09778,-0.12513 -0.29273,-0.52349 -0.29273,-0.52349l0.10372,-0.49851l0.98465,-1.04698l1.50279,-0.99702h5.13045l0.41465,0.09968l1.71011,-0.2492l0.62186,0.04984l0.51826,0.14952l0.15546,0.49851c0,0 -0.21113,0.39633 -0.26276,0.48626c-0.13394,0.23361 -0.67003,0.81003 -0.67003,0.81003c0,0 -0.18056,0.1042 -0.28964,0.16712c-0.14155,0.08172 -0.4878,0.28155 -0.4878,0.28155l-0.41453,0.54835z" fill="url(#color-13)" stroke="url(#color-14)" stroke-width="0.25" stroke-linecap="round"/><path d="M239.1827,184.97258c0,0.65338 0.17937,2.35505 -0.1086,2.84226c-0.42488,0.7188 -1.45568,0.54407 -2.22337,0.54407c-0.7502,0 -1.82573,0.10408 -2.25239,-0.58713c-0.30558,-0.49542 -0.07946,-2.12393 -0.07946,-2.7992c0,-1.61745 1.044,-2.92861 2.33185,-2.92861c1.28797,0 2.33197,1.31128 2.33197,2.92861z" fill="url(#color-15)" stroke="url(#color-16)" stroke-width="0.05" stroke-linecap="butt"/><g fill="url(#color-17)" stroke="url(#color-18)" stroke-width="0.35" stroke-linecap="butt"><path d="M234.60864,186.4622c0.28607,0.91661 0.09742,1.79088 -0.42143,1.95277c-0.51873,0.16201 -1.17128,-0.44974 -1.45735,-1.36635c-0.28607,-0.91649 -0.09742,-1.79076 0.42143,-1.95265c0.51873,-0.16201 1.17128,0.44974 1.45735,1.36623z"/></g><g data-paper-data="{&quot;index&quot;:null}" fill="url(#color-19)" stroke="url(#color-20)" stroke-width="0.35" stroke-linecap="butt"><path d="M240.49151,185.09597c0.51885,0.16189 0.7075,1.03615 0.42143,1.95265c-0.28607,0.91661 -0.93862,1.52836 -1.45735,1.36635c-0.51885,-0.16189 -0.7075,-1.03615 -0.42143,-1.95277c0.28607,-0.91649 0.93862,-1.52824 1.45735,-1.36623z"/></g></g><path d="M231.95342,176.6259l-0.84738,-4.31412l2.82453,1.23266l1.81288,1.84892l-2.56606,1.84892z" fill="url(#color-21)" stroke="url(#color-22)" stroke-width="0.15" stroke-linecap="round"/><path d="M239.78387,177.51396l-2.56606,-1.84892l1.81288,-1.84892l2.82453,-1.23266l-0.84738,4.31412z" fill="url(#color-23)" stroke="url(#color-24)" stroke-width="0.15" stroke-linecap="round"/><g data-paper-data="{&quot;index&quot;:null}" stroke-width="0.15"><path d="M241.65336,178.25323c0,2.42308 -2.32388,3.8024 -5.28521,3.8024c-2.96132,0 -5.43841,-1.37932 -5.43841,-3.8024c0,-2.42297 2.40048,-4.22015 5.36181,-4.22015c2.96132,0 5.36181,1.79718 5.36181,4.22015z" fill="url(#color-25)" stroke="url(#color-26)" stroke-linecap="butt"/><path d="M231.92546,179.54855l1.83834,-0.16712l-0.53622,2.0057l-2.83405,-0.91935l0.68942,-0.83561l-1.37884,-0.66861l1.37884,-0.75211l-0.99583,-0.75211l1.91494,-1.67133l1.76174,3.76053z" fill="url(#color-27)" stroke="url(#color-28)" stroke-linecap="round"/><path d="M239.04912,179.54855l1.76174,-3.76053l1.91494,1.67133l-0.99583,0.75211l1.37884,0.75211l-1.37884,0.66849l0.68942,0.83573l-2.83417,0.83573l-0.5361,-1.92208l1.83834,0.16712z" data-paper-data="{&quot;index&quot;:null}" fill="url(#color-29)" stroke="url(#color-30)" stroke-linecap="round"/></g><path d="M239.36018,177.81003l-2.20232,-1.6184l1.55584,-1.61828l2.42416,-1.07898l-0.72725,3.77623z" fill="#ffffff" stroke="#ffffff" stroke-width="0.15" stroke-linecap="round"/><path d="M238.92876,178.29307l-1.93932,-1.6184l2.01605,-1.6184l1.70107,-1.07898l-0.72725,3.77623z" fill="url(#color-31)" stroke="url(#color-32)" stroke-width="0.15" stroke-linecap="round"/><path d="M232.42456,176.97799l-0.72725,-3.77623l2.42416,1.07898l1.55596,1.6184l-2.20232,1.61828z" fill="#ffffff" stroke="#ffffff" stroke-width="0.15" stroke-linecap="round"/><path d="M232.90167,177.61363l-0.72725,-3.77623l1.70107,1.07898l2.01605,1.6184l-1.93932,1.61828z" fill="url(#color-33)" stroke="url(#color-34)" stroke-width="0.15" stroke-linecap="round"/><g><g><path d="M240.03759,186.53009c0,0 -0.05745,0.38622 -0.08279,0.55691c-0.02153,0.14524 -0.05983,0.40323 -0.05983,0.40323l-1.23575,0.36576l-2.1388,0.13715l-1.61602,-0.18282l-1.23575,-0.41156l-0.14262,-0.91447l0.09504,-2.97203l-0.71285,0.18294l-0.60164,0.05008l-0.53907,-0.69025l0.09504,-0.45724l0.90305,-0.96015l1.37837,-0.91447h4.70534l0.38016,0.09147l1.56856,-0.22862l0.57035,0.04568l0.4752,0.13715l0.14262,0.45724c0,0 -0.19365,0.36339 -0.24099,0.44605c-0.12287,0.21411 -0.61448,0.74283 -0.61448,0.74283c0,0 -0.16569,0.09552 -0.26561,0.1532c-0.12977,0.07494 -0.44736,0.25824 -0.44736,0.25824l-0.38028,0.50303v3.20065z" fill="url(#color-35)" stroke="url(#color-36)" stroke-width="0.25" stroke-linecap="round"/><path d="M231.97999,182.38164c0.29611,-0.21135 0.5878,0.0931 0.83086,0.43362c0.24305,0.34052 0.43618,0.71534 0.14007,0.92669c-0.29611,0.21135 -0.992,0.14741 -1.23506,-0.19312c-0.24305,-0.34052 -0.03197,-0.95584 0.26412,-1.16719z" fill="#ff5454" stroke="none" stroke-width="0" stroke-linecap="butt"/><path d="M238.94208,184.78511c0,0.59926 0.1645,2.15985 -0.09956,2.60674c-0.38979,0.65921 -1.33519,0.49899 -2.03912,0.49899c-0.68811,0 -1.67455,0.09552 -2.06577,-0.53848c-0.28036,-0.45438 -0.07303,-1.94801 -0.07303,-2.56725c0,-1.4834 0.95753,-2.68596 2.1388,-2.68596c1.18115,0 2.13868,1.20256 2.13868,2.68596z" fill="url(#color-37)" stroke="#ffffff" stroke-width="0.075" stroke-linecap="butt"/><g stroke-linecap="butt"><path d="M234.70503,186.40305c0.2624,0.8406 0.08933,1.64243 -0.38646,1.791c-0.47579,0.14845 -1.07422,-0.41251 -1.33662,-1.25311c-0.2624,-0.8406 -0.08933,-1.64243 0.38646,-1.791c0.47579,-0.14845 1.07422,0.41251 1.33662,1.25311z" fill="url(#color-38)" stroke="url(#color-39)" stroke-width="0.25"/><path d="M234.46824,185.69499c0.1148,0.36777 -0.28792,0.56066 -0.71087,0.69268c-0.42294,0.13201 -0.86389,0.20246 -0.97869,-0.16531c-0.1148,-0.36777 0.17952,-1.04682 0.60247,-1.17884c0.42294,-0.13201 0.97229,0.2837 1.08709,0.65148z" fill="#ff5454" stroke="none" stroke-width="0"/></g><g data-paper-data="{&quot;index&quot;:null}" stroke-linecap="butt"><path d="M240.26833,185.14993c0.47579,0.14857 0.64886,0.95039 0.38646,1.791c-0.2624,0.8406 -0.86082,1.40156 -1.33662,1.25311c-0.47579,-0.14857 -0.64886,-0.95039 -0.38646,-1.791c0.2624,-0.84048 0.86082,-1.40156 1.33662,-1.25311z" fill="url(#color-40)" stroke="url(#color-41)" stroke-width="0.25"/><path d="M240.25556,185.0435c0.42295,0.13202 0.71727,0.81108 0.60247,1.17886c-0.1148,0.36777 -0.55575,0.29732 -0.97869,0.1653c-0.42294,-0.13201 -0.82566,-0.32489 -0.71087,-0.69268c0.1148,-0.36777 0.66414,-0.7835 1.08709,-0.65149z" fill="#ff5454" stroke="none" stroke-width="0"/></g></g><path d="M241.74376,182.04967c-0.33066,0.15168 -0.66542,-0.20233 -0.83985,-0.58261c-0.17444,-0.38026 -0.29337,-0.78479 0.03729,-0.93648c0.33066,-0.15168 1.02842,-0.08976 1.20287,0.29052c0.17444,0.38026 -0.17536,1.07688 -0.50603,1.22855z" fill="#ff5454" stroke="none" stroke-width="0" stroke-linecap="butt"/></g><g data-paper-data="{&quot;index&quot;:null}" stroke-width="0.15"><path d="M240.96465,178.29282c0,2.12096 -1.99463,3.32828 -4.53619,3.32828c-2.54156,0 -4.66751,-1.20732 -4.66751,-3.32828c0,-2.12096 2.06029,-3.69392 4.60185,-3.69392c2.54156,0 4.60185,1.57297 4.60185,3.69392z" fill="url(#color-42)" stroke="#ffffff" stroke-linecap="butt"/><path d="M232.61548,179.42664l1.57784,-0.14631l-0.46021,1.65211l-2.43236,-0.70113l0.59165,-0.73153l-1.18329,-0.58522l1.18329,-0.65826l-0.85464,-0.65838l1.6435,-1.46294l1.51206,3.29164z" fill="url(#color-43)" stroke="url(#color-44)" stroke-linecap="round"/><path d="M238.72951,179.42664l1.51194,-3.29164l1.64362,1.46294l-0.85464,0.65838l1.18329,0.65826l-1.18329,0.58522l0.59165,0.73141l-2.43248,0.62809l-0.46021,-1.57896l1.57784,0.14631z" data-paper-data="{&quot;index&quot;:null}" fill="url(#color-45)" stroke="url(#color-46)" stroke-linecap="round"/></g><path d="M236.95764,178.2474c0,0.10253 -0.13691,0.27302 -0.30578,0.27302c-0.16893,0 -0.30585,-0.17049 -0.30585,-0.27302c0,-0.1026 0.13691,-0.14198 0.30585,-0.14198c0.16886,0 0.30578,0.03944 0.30578,0.14198z" fill="#000000" stroke="#000000" stroke-width="0.25" stroke-linecap="butt"/><path d="M237.76916,178.75485l-0.14535,0.42441l-0.39217,0.1871l-0.34685,-0.11562l-0.2492,-0.40002l-0.14179,0.21411l-0.41846,0.30153l-0.43142,-0.21934l-0.10967,-0.36231" fill="#fff0d1" stroke="#000000" stroke-width="0.25" stroke-linecap="round"/><path d="M240.30213,179.52302l-0.61163,-0.13596l-0.47579,-0.16986" fill="none" stroke="#ff5454" stroke-width="0.25" stroke-linecap="round"/><path d="M233.94698,179.31913l-1.15546,0.06792" fill="none" stroke="#ff5454" stroke-width="0.25" stroke-linecap="round"/><path d="M233.84505,178.86104l-1.08754,-0.16986" fill="none" stroke="#ff5454" stroke-width="0.25" stroke-linecap="round"/><path d="M239.41858,177.56963l0.74759,-0.16998l-0.23778,0.27191l0.50969,0.33983l-0.33983,-0.06792z" fill="none" stroke="#ff5454" stroke-width="0.25" stroke-linecap="round"/><path d="M237.72191,177.46175l2.044,0.26502" data-paper-data="{&quot;index&quot;:null}" fill="none" stroke="#000000" stroke-width="0.25" stroke-linecap="round"/><path d="M232.85943,177.90947l-0.33983,0.06804l0.50969,-0.33983l-0.2379,-0.27191l0.74771,0.16986z" data-paper-data="{&quot;index&quot;:null}" fill="none" stroke="#ff5454" stroke-width="0.25" stroke-linecap="round"/><path d="M233.23923,177.67263l2.044,-0.26502" fill="none" stroke="#000000" stroke-width="0.25" stroke-linecap="round"/><path d="M238.43659,176.7272c0,-0.269 0.21808,-0.48708 0.48708,-0.48708c0.09389,0 0.18157,0.02656 0.25595,0.07259c0.0932,0.05768 0.49367,0.19783 0.49367,0.19783c0,0 -0.26253,0.15919 -0.26253,0.21666c0,0.269 -0.21808,0.48708 -0.48708,0.48708c-0.269,0 -0.48708,-0.21808 -0.48708,-0.48708z" fill="#ff5454" stroke="none" stroke-width="NaN" stroke-linecap="butt"/><path d="M234.14657,177.05776c-0.269,0 -0.48708,-0.21808 -0.48708,-0.48708c0,-0.05746 -0.26253,-0.21665 -0.26253,-0.21665c0,0 0.40046,-0.14016 0.49366,-0.19782c0.07437,-0.04602 0.16207,-0.07259 0.25595,-0.07259c0.269,0 0.48708,0.21808 0.48708,0.48708c0,0.269 -0.21808,0.48708 -0.48708,0.48708z" data-paper-data="{&quot;index&quot;:null}" fill="#ff5454" stroke="none" stroke-width="NaN" stroke-linecap="butt"/><path d="M232.00992,175.20067l-0.40894,-2.12334l1.36314,0.60663l-0.38801,0.8663z" fill="#ff5454" stroke="none" stroke-width="0.15" stroke-linecap="round"/><path d="M240.25906,174.84287l-0.38801,-0.8663l1.36314,-0.60663l-0.40894,2.12334z" fill="#ff5454" stroke="none" stroke-width="0.15" stroke-linecap="round"/><path d="M239.19381,178.82854h1.15662" fill="none" stroke="#ff5454" stroke-width="0.25" stroke-linecap="round"/></g></g></svg>