<svg version="1.1" xmlns="http://www.w3.org/2000/svg" xmlns:xlink="http://www.w3.org/1999/xlink" width="17.19349" height="18.43484" viewBox="0,0,17.19349,18.43484"><defs><linearGradient x1="238.16457" y1="181.02663" x2="238.16457" y2="186.40272" gradientUnits="userSpaceOnUse" id="color-1"><stop offset="0" stop-color="#ff0000"/><stop offset="1" stop-color="#30003c"/></linearGradient><linearGradient x1="238.16457" y1="181.02663" x2="238.16457" y2="186.40272" gradientUnits="userSpaceOnUse" id="color-2"><stop offset="0" stop-color="#ff0000"/><stop offset="1" stop-color="#30003c"/></linearGradient><linearGradient x1="237.9665" y1="179.93442" x2="237.9665" y2="181.63153" gradientUnits="userSpaceOnUse" id="color-3"><stop offset="0" stop-color="#ff0000"/><stop offset="1" stop-color="#30003c"/></linearGradient><linearGradient x1="233.27706" y1="183.75055" x2="233.27706" y2="186.36577" gradientUnits="userSpaceOnUse" id="color-4"><stop offset="0" stop-color="#ff0000"/><stop offset="1" stop-color="#30003c"/></linearGradient><linearGradient x1="233.27706" y1="183.75055" x2="233.27706" y2="186.36577" gradientUnits="userSpaceOnUse" id="color-5"><stop offset="0" stop-color="#ff0000"/><stop offset="1" stop-color="#30003c"/></linearGradient><linearGradient x1="232.41785" y1="188.16515" x2="235.37836" y2="184.52987" gradientUnits="userSpaceOnUse" id="color-6"><stop offset="0" stop-color="#dfc62e"/><stop offset="1" stop-color="#d4de2f"/></linearGradient><linearGradient x1="241.01346" y1="181.99774" x2="238.07123" y2="185.64784" gradientUnits="userSpaceOnUse" id="color-7"><stop offset="0" stop-color="#dfc62e"/><stop offset="1" stop-color="#d4de2f"/></linearGradient><linearGradient x1="240.91259" y1="184.82798" x2="243.82659" y2="181.15536" gradientUnits="userSpaceOnUse" id="color-8"><stop offset="0" stop-color="#dfc62e"/><stop offset="1" stop-color="#d4de2f"/></linearGradient><radialGradient cx="233.37352" cy="175.58449" r="6.77273" gradientUnits="userSpaceOnUse" id="color-9"><stop offset="0" stop-color="#926600"/><stop offset="1" stop-color="#d09200"/></radialGradient><linearGradient x1="237.60079" y1="171.94812" x2="237.60079" y2="181.64508" gradientUnits="userSpaceOnUse" id="color-10"><stop offset="0" stop-color="#ff0000"/><stop offset="1" stop-color="#30003c"/></linearGradient><linearGradient x1="239.98383" y1="175.44479" x2="239.98383" y2="180.8156" gradientUnits="userSpaceOnUse" id="color-11"><stop offset="0" stop-color="#faff94"/><stop offset="1" stop-color="#ffb800"/></linearGradient><linearGradient x1="231.8207" y1="175.93567" x2="231.8207" y2="180.39804" gradientUnits="userSpaceOnUse" id="color-12"><stop offset="0" stop-color="#faff94"/><stop offset="1" stop-color="#ffb800"/></linearGradient></defs><g transform="translate(-229.85545,-171.29491)"><g data-paper-data="{&quot;isPaintingLayer&quot;:true}" fill-rule="nonzero" stroke-linejoin="miter" stroke-miterlimit="10" stroke-dasharray="" stroke-dashoffset="0" style="mix-blend-mode: normal"><path d="M231.97636,186.14185v-7.2h11.00471v7.2z" data-paper-data="{&quot;index&quot;:null}" fill="#a97e19" stroke="#a97e19" stroke-width="0.5" stroke-linecap="butt"/><path d="M241.06258,178.10011v7.32302h-9.33268v-7.29407z" data-paper-data="{&quot;index&quot;:null}" fill="#f7c6b5" stroke="none" stroke-width="0" stroke-linecap="round"/><path d="M243.21402,186.40272l-10.11195,-0.04348l10.125,-5.33261z" fill="url(#color-1)" stroke="url(#color-2)" stroke-width="0.2" stroke-linecap="round"/><g fill="none" stroke="#000000" stroke-width="0.15" stroke-linecap="round"><path d="M234.52062,182.44588v0.43837l-0.88071,0.67366"/><path d="M234.51539,182.90791l0.82711,0.65"/><path d="M234.08523,183.2237l0.84808,0.02889"/></g><g stroke="none"><path d="M236.71542,180.69339c0.83564,-0.22121 1.64362,-0.42765 2.42985,-0.75897c0.05313,0.15064 0.07871,0.31315 0.07096,0.48236c-0.03248,0.70254 -0.62822,1.2454 -1.33086,1.2134c-0.56591,-0.02621 -1.02863,-0.41798 -1.16995,-0.9368z" data-paper-data="{&quot;index&quot;:null}" fill="url(#color-3)" stroke-width="0" stroke-linecap="butt"/><path d="M238.4179,180.19568c0,0 -0.01156,0.11817 -0.02753,0.17887c-0.01656,0.06295 -0.07015,0.19233 -0.07015,0.19233c0,0 -0.07915,0.07889 -0.12504,0.11331c-0.0562,0.04215 -0.18755,0.12113 -0.18755,0.12113c0,0 -0.11722,-0.01953 -0.17583,-0.03907c-0.05861,-0.01954 -0.17583,-0.07815 -0.17583,-0.07815l-0.17583,-0.19537z" fill="#ffffff" stroke-width="0.5" stroke-linecap="round"/></g><path d="M233.09228,186.36577l-1.35652,-0.00652l0.05419,-2.6087l3.02842,1.66413z" fill="url(#color-4)" stroke="url(#color-5)" stroke-width="0.2" stroke-linecap="round"/><path d="M235.64425,184.74644h0.8133l0.75073,0.3092l0.37544,0.4637l0.25029,-0.1159l0.56301,-0.1546h0.56316l0.31287,0.1933l0.25014,-0.1933l0.75088,-0.2318l0.87587,-0.0387l0.87587,0.1932l0.18772,0.3865l1.81432,0.5024l0.75088,0.4637l0.75073,-0.1932l0.56301,-0.4251l0.50058,-0.5024l-0.06257,0.6957l-0.12515,0.6569l-0.43801,0.3092l-1.18874,0.4637l-1.06359,0.3092l-0.25014,0.4251l-0.37544,0.1546l-0.56316,0.1546l-0.31272,0.3091l-0.8133,0.0773l-0.81345,-0.0773l0.12515,0.2319l-0.56301,0.2319l-0.81345,0.0773l-0.62558,-0.1546l-0.75073,0.3478l-0.81345,0.0387l-0.87957,-0.1069l-0.74703,-0.3183l-0.62558,-0.2705l-1.18874,0.5024l-1.00102,-0.2319l-1.37646,-0.1932l-0.75088,-0.657l-0.18757,-0.3091l0.06257,-0.4638l0.41094,-0.3092l0.02692,-0.4251l0.12515,-0.5023l0.50058,-0.1933l0.06257,-0.3091l0.25014,-0.3092l0.50058,-0.1932l0.50044,-0.116l0.81345,0.1933l0.50044,-0.3092l0.8133,-0.2319z" fill="#d5f8ff" stroke="#00a9ff" stroke-width="0.15" stroke-linecap="round"/><path d="M240.33649,186.13774l-0.18757,-0.3092l0.43786,-0.0773l0.43801,0.0773l0.06257,0.3478l-0.43801,0.3478l-1.06359,-0.3091l-0.31272,-0.4638l0.18757,-0.3478" fill="none" stroke="#00a9ff" stroke-width="0.15" stroke-linecap="round"/><path d="M242.96426,188.41784l-0.62558,0.0773v-0.2706l0.56301,-0.1159" fill="none" stroke="#00a9ff" stroke-width="0.15" stroke-linecap="round"/><path d="M240.14892,188.64964l0.56301,-0.2705l-0.12515,0.6956" fill="none" stroke="#00a9ff" stroke-width="0.15" stroke-linecap="round"/><path d="M239.89863,187.72224l-0.37544,-0.1546l-0.37529,-0.1546l0.62558,-0.2705l0.8133,0.0386l0.43801,0.1546l0.18772,0.4251v0.3864l-0.50058,0.2706" fill="none" stroke="#00a9ff" stroke-width="0.15" stroke-linecap="round"/><path d="M238.39702,187.87674l0.06257,-0.3091l0.50058,0.0386l0.31272,0.4251l-0.50044,0.1932l-0.68816,-0.0773l-0.31287,-0.4637l0.18772,-0.3092l0.93845,-0.0386l0.43786,0.1932" fill="none" stroke="#00a9ff" stroke-width="0.15" stroke-linecap="round"/><path d="M237.95916,188.92024l-0.8133,0.2318l-0.37544,-0.2705l0.06257,-0.3092l0.31272,-0.4251l0.75088,-0.0772l0.8133,0.5796l0.06257,0.5024l-0.62573,0.3865" fill="none" stroke="#00a9ff" stroke-width="0.15" stroke-linecap="round"/><path d="M231.20216,188.92024l-0.25029,-0.4251l0.31287,-0.4638l0.75073,-0.1159l0.62573,0.0773l0.125,0.4251l-0.37529,0.2705l-0.50058,-0.1546l0.37544,-0.2705" fill="none" stroke="#00a9ff" stroke-width="0.15" stroke-linecap="round"/><path d="M232.70376,187.91544l1.12617,-0.5797c0,0 0.55443,-0.1663 0.81463,-0.1724c0.28047,-0.0067 0.93712,0.0178 0.93712,0.0178c0,0 0.50413,0.2898 0.71079,0.4104c0.12174,0.071 0.47795,0.2079 0.47795,0.2079l0.31287,0.3865" fill="none" stroke="#00a9ff" stroke-width="0.15" stroke-linecap="round"/><path d="M233.14163,187.68354l-0.50044,-0.0773l-0.6883,-0.5797l-0.125,-0.4637l-0.31287,-0.4251" fill="none" stroke="#00a9ff" stroke-width="0.15" stroke-linecap="round"/><path d="M233.51707,185.44214l0.37544,0.3478l0.18757,0.3478l-0.43786,0.3864l-0.43801,-0.0773l-0.31287,-0.1545l0.31287,-0.2706l0.37544,0.0387" fill="none" stroke="#00a9ff" stroke-width="0.15" stroke-linecap="round"/><path d="M235.89455,186.06044l0.43786,-0.2319l0.75088,-0.2705h0.75073l0.31272,0.3864v0.3092" fill="none" stroke="#00a9ff" stroke-width="0.15" stroke-linecap="round"/><path d="M231.45245,186.79464l0.06257,0.2319l-0.50058,0.2319" fill="none" stroke="#00a9ff" stroke-width="0.15" stroke-linecap="round"/><path d="M235.0811,189.07484l-0.37529,-0.3092v-0.3865" fill="none" stroke="#00a9ff" stroke-width="0.15" stroke-linecap="round"/><g stroke-linecap="round"><path d="M236.32019,185.58605l-4.58009,1.81918c-0.07783,-0.20691 -0.16371,-0.41009 -0.26018,-0.59794l5.6466,-2.21129z" fill="#000000" stroke="#000000" stroke-width="0.05"/><path d="M231.6205,187.10727l0.05303,-0.15764l1.32094,-0.47096l0.17435,0.18882l1.24162,-0.48865l0.14501,-0.3507l1.29274,-0.49385l0.27135,0.1272l0.30156,-0.08254" fill="none" stroke="url(#color-6)" stroke-width="0.15"/><g fill="#dccf2f" stroke="#dad02e" stroke-width="0.05"><path d="M233.14497,186.86188l-2.94546,1.16913c-0.12053,-0.21848 -0.20916,-0.44541 -0.3104,-0.66901l3.07032,-1.19334c0.06218,0.16296 0.12881,0.33357 0.19442,0.49893c0.0127,0.03583 0.02578,0.07134 0.03918,0.10677z"/></g><path d="M237.12423,184.59643l4.73378,-1.90804l0.58349,0.47031l-6.11863,2.43188z" fill="#000000" stroke="#000000" stroke-width="0.05"/><path d="M241.86147,182.91458l-0.09761,0.29483l-1.31857,0.47761l-0.17528,-0.18791l-1.23911,0.49493l-0.14327,0.35131l-1.29026,0.50048l-0.27197,-0.12591l-0.30108,0.08402" fill="none" stroke="url(#color-7)" stroke-width="0.15"/><path d="M244.78172,182.19946l-4.71903,1.94429l-0.58701,-0.4658l5.16537,-2.09904c0.0562,0.14296 0.11699,0.29227 0.17723,0.43679c0.0111,0.03151 0.02275,0.06289 0.03487,0.09382z" fill="#000000" stroke="#000000" stroke-width="0.05"/><path d="M240.05752,183.91762l0.09527,-0.29554l1.31492,-0.48774l0.17668,0.18655l1.2354,-0.50437l0.14046,-0.35248l1.28644,-0.51034l0.27283,0.12376l0.23618,-0.0679" fill="none" stroke="url(#color-8)" stroke-width="0.15"/><g fill="#dccf2f" stroke="#dad02e" stroke-width="0.05"><path d="M246.97354,181.40091l-2.94547,1.16913c-0.12061,-0.21834 -0.20927,-0.44539 -0.31051,-0.66899l3.07032,-1.19334c0.06218,0.16296 0.1288,0.33358 0.19455,0.49902c0.01267,0.03572 0.02567,0.07137 0.03905,0.10669z"/></g></g><path d="M241.30165,183.71911c-0.06601,0.24112 -1.28988,0.80309 -1.48103,0.77523c-0.23442,-0.03416 -0.29527,-0.32199 -0.39245,-0.52103c-0.17643,-0.36135 0.04781,-0.83363 0.50087,-1.05482c0.45305,-0.22121 0.98112,-0.11625 1.15754,0.2451c0.06819,0.13967 0.25667,0.40363 0.21508,0.55552z" data-paper-data="{&quot;index&quot;:null}" fill="#a97e19" stroke="#000000" stroke-width="0.25" stroke-linecap="butt"/><path d="M242.40383,174.06934l0.75758,-0.45455l-0.36364,1.60606l0.84848,-0.66667l-0.12121,1.54545l0.57576,-0.36364l-0.42424,1.69697l0.69697,-0.36364l-0.57576,1.36364l0.48485,0.06061l-0.90909,0.57576l-0.15152,1.21212l-0.66667,-0.84848l-0.33333,0.75758l-1.12121,-0.75758l-0.42424,0.66667l-0.9697,-0.66667l-0.21212,0.63636l-0.72727,-0.51515l-0.27273,0.57576l-0.78788,-0.9697l-0.87879,0.90909l-0.27273,-0.60606l-1.09091,1.60606l-0.09091,-0.66667l-1.09091,1.12121l-0.15152,-0.78788l-1.33333,0.90909l-0.09091,-1.09091l-1.06061,0.51515l0.09091,-1.60606l-0.90909,-1.09091l0.51515,0.09091l-0.51515,-1.54545l0.66667,0.45455l-0.27273,-1.51515l0.63636,0.60606l-0.06061,-2.24242l0.84848,0.66667l1,-2.15152l0.09091,1.30303l1.69697,-1.93939l-0.24242,1.63636l1.63636,-1.57576l-0.15152,1.30303l1.78788,-1.51515l-0.12121,1.78788l1.84848,-1.42424l-0.39394,1.33333l1.60606,-1.21212v1.30303l1.09091,-0.9697z" fill="url(#color-9)" stroke="url(#color-10)" stroke-width="0.5" stroke-linecap="round"/><g stroke="none" stroke-width="0" stroke-linecap="round"><path d="M242.39112,178.5474l-0.86532,0.47807l0.37825,1.00677l-2.39592,-0.67118l-0.757,1.45453l-0.63058,-1.90228l-1.00883,0.78335l0.757,-2.23787l-0.757,-0.89506l1.00883,-1.11894l0.05014,0.95555l0.70686,0.49898l0.12591,1.11894l1.00883,0.22387l2.84361,-1.09854z" data-paper-data="{&quot;index&quot;:null}" fill="url(#color-11)"/><path d="M231.01533,178.05218l0.91971,0.00456l0.10378,-0.92224l0.58259,-0.41126l0.04133,-0.78757l0.83148,0.92224l-0.62392,0.73771l0.62392,1.84447l-0.83148,-0.64563l-0.51973,1.60358l-0.88862,-1.12741l-1.1072,-1.27882z" data-paper-data="{&quot;index&quot;:null}" fill="url(#color-12)"/></g></g></g></svg>