<svg version="1.1" xmlns="http://www.w3.org/2000/svg" xmlns:xlink="http://www.w3.org/1999/xlink" width="16.70814" height="17.06717" viewBox="0,0,16.70814,17.06717"><defs><linearGradient x1="237.4067" y1="175.81283" x2="237.4067" y2="188.7909" gradientUnits="userSpaceOnUse" id="color-1"><stop offset="0" stop-color="#ff9500"/><stop offset="1" stop-color="#ffde00"/></linearGradient><linearGradient x1="237.4067" y1="175.81283" x2="237.4067" y2="188.7909" gradientUnits="userSpaceOnUse" id="color-2"><stop offset="0" stop-color="#925500"/><stop offset="1" stop-color="#e2c400"/></linearGradient><linearGradient x1="242.36224" y1="179.16993" x2="240.15217" y2="176.34051" gradientUnits="userSpaceOnUse" id="color-3"><stop offset="0" stop-color="#ffffff"/><stop offset="1" stop-color="#ffde00"/></linearGradient><radialGradient cx="236.63612" cy="174.44221" r="0.98495" gradientUnits="userSpaceOnUse" id="color-4"><stop offset="0" stop-color="#ffbdbd"/><stop offset="1" stop-color="#ff6666"/></radialGradient><radialGradient cx="237.3377" cy="187.15314" r="8.12902" gradientUnits="userSpaceOnUse" id="color-5"><stop offset="0" stop-color="#d2e8ff" stop-opacity="0"/><stop offset="1" stop-color="#d2e8ff"/></radialGradient></defs><g transform="translate(-228.95864,-172.97992)"><g data-paper-data="{&quot;isPaintingLayer&quot;:true}" fill-rule="nonzero" stroke-linejoin="miter" stroke-miterlimit="10" stroke-dasharray="" stroke-dashoffset="0" style="mix-blend-mode: normal"><path d="M243.89572,187.18516c0,0.94161 -0.6169,1.60574 -1.56818,1.60574c-2.73811,0 -8.2465,0 -9.78762,0c-0.78486,0 -1.62226,-0.68732 -1.62226,-1.65981c0,-2.74575 0,-8.08776 0,-9.62541c0,-0.79159 0.69443,-1.69286 1.67634,-1.69286c2.75593,0 8.09437,0 9.62541,0c0.78486,0 1.67634,0.87935 1.67634,1.69285c0,1.55908 0,6.96746 0,9.67948z" fill="url(#color-1)" stroke="none" stroke-width="0" stroke-linecap="butt"/><g stroke-width="0.4"><path d="M231.99011,181.18059v-0.76116h0.80586v0.76116z" fill="#ff9500" stroke="#ff9500" stroke-linecap="butt"/><path d="M237.40729,181.27011v-0.71636h0.67155v0.71636z" fill="#ff9500" stroke="#ff9500" stroke-linecap="butt"/><path d="M237.58645,179.79271l-1.38791,-0.44774" fill="none" stroke="#000000" stroke-linecap="round"/></g><path d="M230.91766,179.03858c0,0 0,-1.16193 0,-1.53291c0,-0.79159 0.69443,-1.69286 1.67634,-1.69286c2.75593,0 8.09437,0 9.62541,0c0.78486,0 1.67634,0.87935 1.67634,1.69285c0,0.3456 0,1.57154 0,1.57154z" fill="url(#color-2)" stroke="none" stroke-width="0" stroke-linecap="butt"/><path d="M240.54987,178.30774c-0.61024,-0.78128 -0.78849,-1.66217 -0.39769,-1.96722c0.39048,-0.3052 1.20183,0.08076 1.81239,0.86218c0.61024,0.78128 0.78817,1.66203 0.39769,1.96722c-0.3908,0.30505 -1.20216,-0.08091 -1.81239,-0.86218z" data-paper-data="{&quot;index&quot;:null}" fill="url(#color-3)" stroke="none" stroke-width="0" stroke-linecap="butt"/><path d="M237.11893,174.21044c0.54397,0 0.98495,0.42369 0.98495,0.94632c0,0.52264 -0.44098,0.94631 -0.98495,0.94631c-0.54396,0 -0.98494,-0.42368 -0.98494,-0.94631c0,-0.52264 0.44097,-0.94632 0.98494,-0.94632z" fill="url(#color-4)" stroke="none" stroke-width="NaN" stroke-linecap="butt"/><path d="M232.70831,179.77999l1.18071,-0.49609" fill="none" stroke="#000000" stroke-width="0.4" stroke-linecap="round"/><g stroke="#dedede" stroke-width="0.5" stroke-linecap="round"><path d="M244.3074,184.68664c0,-0.26582 0,-0.66683 0,-0.66683l1.07958,0.20091" fill="none"/><path d="M229.23515,184.34128l1.48235,-0.44202c0,0 0,0.49148 0,0.75707" fill="none"/><path d="M245.36113,187.1919c0,0 -0.04433,0.93 -0.10861,1.19228c-0.0637,0.25991 -0.31867,0.77621 -0.31867,0.77621c0,0 -0.14399,0.24863 -0.29326,0.314c-0.26503,0.11606 -0.78979,0.32245 -0.78979,0.32245l-12.12621,-0.06282l-1.30845,-0.13345c0,0 -0.34306,-0.3664 -0.50355,-0.47544c-0.22537,-0.15313 -0.38804,-0.55224 -0.38804,-0.55224c0,0 -0.09419,-0.52826 -0.17205,-0.81729c-0.08795,-0.32652 -0.14386,-1.04313 -0.14386,-1.04313v-2.30102l1.22492,0.19583c0,0 1.57343,0.25647 3.61079,0.38335c1.35902,0.08464 3.23349,0.05727 3.85009,0.05727c0.69171,0 3.22933,-0.04896 3.22933,-0.04896l2.73167,-0.18503l1.55556,-0.35351z" fill="url(#color-5)"/></g><path d="M236.16889,173.10492l0.46723,0.1262l0.32301,0.51831l0.03155,0.62798" fill="none" stroke="#00da36" stroke-width="0.25" stroke-linecap="round"/><path d="M236.19853,180.64334l-0.17911,0.35812l-0.4558,0.05921c0,0 -0.28946,-0.12713 -0.37155,-0.25843c-0.06049,-0.0967 -0.2005,-0.19517 -0.2005,-0.19517l-0.31525,0.34958l-0.44763,0.13431c0,0 -0.20147,-0.08531 -0.26432,-0.15515c-0.07059,-0.07833 -0.13861,-0.29258 -0.13861,-0.29258" fill="none" stroke="#000000" stroke-width="0.4" stroke-linecap="round"/></g></g></svg>