<svg version="1.1" xmlns="http://www.w3.org/2000/svg" xmlns:xlink="http://www.w3.org/1999/xlink" width="23.85108" height="17.18297" viewBox="0,0,23.85108,17.18297"><defs><linearGradient x1="243.99174" y1="183.03529" x2="231.74884" y2="183.03529" gradientUnits="userSpaceOnUse" id="color-1"><stop offset="0" stop-color="#b3b3b3"/><stop offset="1" stop-color="#000000"/></linearGradient><linearGradient x1="251.88552" y1="181.32558" x2="246.03588" y2="181.80926" gradientUnits="userSpaceOnUse" id="color-2"><stop offset="0" stop-color="#ffffff"/><stop offset="1" stop-color="#b9f8ff"/></linearGradient></defs><g transform="translate(-228.8779,-172.56393)"><g data-paper-data="{&quot;isPaintingLayer&quot;:true}" fill-rule="nonzero" stroke-linejoin="miter" stroke-miterlimit="10" stroke-dasharray="" stroke-dashoffset="0" style="mix-blend-mode: normal"><path d="M234.71474,186.2679l-0.02902,3.2159h-1.85739l0.02902,-3.2159" fill="#cc7a00" stroke="#cc7a00" stroke-width="0.4" stroke-linecap="round"/><path d="M241.54475,186.2679l-0.02902,3.2159h-1.85739l0.02903,-3.2159" fill="#cc7a00" stroke="#cc7a00" stroke-width="0.4" stroke-linecap="round"/><path d="M243.99172,187.64196c0,0.88827 -0.58195,1.51478 -1.47935,1.51478c-2.58301,0 -7.77936,0 -9.23318,0c-0.74039,0 -1.53036,-0.64838 -1.53036,-1.56579c0,-2.59021 0,-7.62961 0,-9.08015c0,-0.74674 0.6551,-1.59696 1.58138,-1.59696c2.59981,0 7.63584,0 9.08015,0c0.7404,0 1.58138,0.82954 1.58138,1.59696c0,1.47077 0,6.57278 0,9.13116z" fill="url(#color-1)" stroke="none" stroke-width="0" stroke-linecap="butt"/><path d="M231.97027,181.37406c0.15729,-2.08229 2.18342,-3.63281 4.42923,-3.46316c2.24582,0.16964 3.9389,1.99519 3.78161,4.07748c-0.15728,2.08228 -2.10539,3.6328 -4.3512,3.46315c-1.58836,-0.11997 -2.97826,-0.28812 -3.55459,-1.56972c-0.23855,-0.53046 -0.35107,-1.89818 -0.30504,-2.50775z" data-paper-data="{&quot;index&quot;:null}" fill="#ffffff" stroke="none" stroke-width="0" stroke-linecap="butt"/><path d="M232.29369,186.44691l0.34921,-3.80556l1.28556,0.10742l-0.3492,3.80557z" data-paper-data="{&quot;index&quot;:null}" fill="#ffffff" stroke="none" stroke-width="0" stroke-linecap="butt"/><path d="M235.0348,186.6491l0.26657,-3.33652l1.28673,0.0923l-0.26657,3.33651z" data-paper-data="{&quot;index&quot;:null}" fill="#ffffff" stroke="none" stroke-width="0" stroke-linecap="butt"/><path d="M233.6372,186.53746l0.378,-3.80281l1.2847,0.11716l-0.378,3.80281z" data-paper-data="{&quot;index&quot;:null}" fill="#ffffff" stroke="none" stroke-width="0" stroke-linecap="butt"/><path d="M238.05388,181.25688c0.168,0.84111 -0.09902,1.60753 -0.59637,1.71185c-0.49739,0.10436 -1.03672,-0.4929 -1.20471,-1.33401c-0.16798,-0.84111 0.09903,-1.6075 0.59639,-1.71185c0.49738,-0.10437 1.03673,0.49287 1.20471,1.33398z" data-paper-data="{&quot;index&quot;:null}" fill="#000000" stroke="none" stroke-width="0" stroke-linecap="butt"/><path d="M232.3039,180.90374c0.31519,-0.74925 0.84828,-1.18449 1.19074,-0.97219c0.34244,0.2123 0.36454,0.99172 0.04938,1.74093c-0.31517,0.74925 -0.84824,1.18449 -1.1907,0.97219c-0.34242,-0.2123 -0.36455,-0.99172 -0.04939,-1.74093z" data-paper-data="{&quot;index&quot;:null}" fill="#000000" stroke="none" stroke-width="0" stroke-linecap="butt"/><path d="M237.02564,180.9389c-0.01548,0.20505 -0.19427,0.35873 -0.39932,0.34324c-0.20506,-0.01549 -0.35873,-0.19428 -0.34324,-0.39933c0.01548,-0.20506 0.19427,-0.35873 0.39932,-0.34324c0.20506,0.01548 0.35873,0.19427 0.34324,0.39932z" data-paper-data="{&quot;index&quot;:null}" fill="#ffffff" stroke="none" stroke-width="0" stroke-linecap="butt"/><path d="M233.16955,180.65414c-0.01327,0.17575 -0.16652,0.30747 -0.34227,0.2942c-0.17575,-0.01329 -0.30747,-0.16654 -0.2942,-0.34229c0.01327,-0.17575 0.16652,-0.30747 0.34227,-0.2942c0.17575,0.01327 0.30747,0.16652 0.2942,0.34227z" data-paper-data="{&quot;index&quot;:null}" fill="#ffffff" stroke="none" stroke-width="0" stroke-linecap="butt"/><path d="M228.97876,177.8029l1.37314,-0.3894l1.32955,-0.51893l1.13618,-0.61806l0.12526,-0.5789l-0.27395,-0.71926l-0.5425,-0.47104l-0.43028,-0.32781l0.64927,-0.35318l1.17919,0.17577l2.32138,-0.13909l2.55884,-0.57473l1.36713,-0.69261l0.89752,1.18359l1.99168,1.6213l1.9933,1.1314l1.13265,0.35597l0.40426,0.59546l-0.54185,0.10418l-0.7113,0.18269l-0.5939,0.51967l-0.17099,0.56841l0.70745,1.04211l0.92747,1.03802l1.02929,0.9419z" data-paper-data="{&quot;index&quot;:null}" fill="#151058" stroke="#000000" stroke-width="0.05" stroke-linecap="round"/><g stroke="#000000" stroke-width="0.05" stroke-linecap="round"><path d="M240.76446,176.63654l-0.71213,2.36694l-1.3103,0.49062l-1.53788,-0.38381l-0.5998,-0.9617l0.3216,-2.50535l1.40726,0.18901l0.83463,-1.07133l0.51248,1.73889z" fill="#000000"/><path d="M239.87786,177.52597l-0.2425,0.01903l-0.68045,-0.36164l-0.70718,-0.21629l-0.81783,0.06112l-0.24886,-0.10888l0.54032,-0.17668l0.77587,0.00488l0.83699,0.32253z" fill="#cccccc"/><path d="M237.21349,175.97828c0,0 1.02199,-0.09555 1.53018,0.02352c0.53148,0.12452 1.47636,0.76914 1.47636,0.76914l-0.28916,0.72695l-0.55255,-0.40748l-0.69196,-0.30066l-0.73571,-0.05915l-0.71216,0.13643l-0.025,-0.88873z" fill="#ffffff"/><path d="M239.99882,176.47756l-0.29901,0.81457l-0.3023,0.18192" fill="none"/><path d="M239.56472,176.4011l-0.25893,0.59649l-0.14383,0.29487" fill="none"/><path d="M239.16211,176.15339l-0.1714,0.77038l-0.10627,0.25314" fill="none"/><path d="M238.57384,177.07883l0.0292,-0.32175l0.11835,-0.75752" fill="none"/><path d="M238.25877,177.00502l-0.11651,-0.17894l-0.00974,-0.77525" fill="none"/><path d="M237.8686,177.01469l-0.12732,-0.28259l-0.04723,-0.71879" fill="none"/><path d="M240.19619,179.12621l-1.20393,0.51558l-1.70984,-0.35373l-0.7841,-0.86412l0.20643,-2.18042l0.33559,-0.0152l-0.25552,2.14548l0.69842,0.72672l1.36006,0.29525l1.05451,-0.45674l0.61528,-1.99078l0.2576,0.10728l-0.01059,0.20866l-0.44879,1.53711z" fill="#ffffff"/><path d="M236.9934,178.4461l0.07672,-0.56855l0.3203,0.52082l0.3208,0.21594l0.7403,0.1969l0.70596,-0.0692l0.41761,-0.25287l-0.18732,0.60474l-0.47986,0.27845l-1.39758,-0.29922z" fill="#ffffff"/><path d="M239.21192,179.20056l0.19132,-0.58861" fill="none"/><path d="M239.59699,178.49314l-0.54879,0.27026l-0.56894,0.07783l-0.501,-0.14088l-0.22485,-0.05861l-0.29035,-0.15594l-0.40515,-0.55872l0.14928,-0.0253l0.33381,0.46154l0.24935,0.15226l0.58491,0.13705l0.59552,-0.07162l0.50466,-0.20889z" fill="#cccccc"/><path d="M240.53832,174.57584l0.51897,0.55073l0.35932,1.061l-0.07661,0.80138l-0.2981,0.30375l-0.25664,-0.10809l-0.66078,-0.41369l-0.42173,-0.09768l-0.45553,-0.31097l-0.27475,-0.9441l-0.65774,0.73144l-0.44567,0.13983l-0.41666,-0.07284l-0.7572,0.1057l-0.28489,-0.10087l0.15059,-0.8269c0,0 0.11928,-0.16868 0.16008,-0.25723c0.04067,-0.08821 0.08432,-0.27305 0.08432,-0.27305l0.48787,-0.54888l0.88768,-0.45551l1.06996,0.06462l0.76175,0.33164z" fill="#ffffff"/><path d="M238.93232,175.48614l0.18916,0.63084l-0.58491,-0.13705z" fill="#ffffff"/><path d="M238.91983,175.56334l-0.13876,0.39728" fill="none"/><path d="M239.27411,175.67801l-0.0733,-0.2049l0.34563,0.08101l0.2664,-0.24256l0.57487,0.04086l0.49868,0.30451l-0.05606,0.4561l-0.23569,0.22631l-0.61562,-0.1208z" fill="#000000"/><path d="M237.75806,175.65196l-0.60732,-0.16576l-0.13655,-0.31353l0.10923,-0.44361l0.5648,-0.05537l0.5418,0.22081l0.15897,0.34224l0.34561,0.08101l-0.13942,0.15501z" data-paper-data="{&quot;index&quot;:null}" fill="#000000"/><path d="M241.28143,176.99231l-0.14765,0.19999l-0.13005,-0.4997l-0.06376,0.19619l-0.31489,-0.09722l0.02599,0.3111l-0.30842,-0.28345l-0.5477,-0.33949l-0.02426,-0.16988l0.4721,0.29828l0.2989,-0.11764l-0.13114,0.11003l0.39468,0.11594l0.18663,-0.26127l0.01114,-0.51352l0.15252,0.52842l0.15124,0.08238z" fill="#000000"/><path d="M236.61369,175.34153l0.16778,-0.0076l0.32603,-0.41629l-0.17066,0.47617l0.07923,0.32354l0.40292,0.07095l-0.08154,-0.15987l0.23279,0.24221l0.53822,-0.06157l-0.08211,0.145l-0.62211,0.06537l-0.3828,0.12144l0.13344,-0.27371l-0.32315,-0.05227l0.01059,-0.20866l-0.29532,0.40003l-0.065,-0.24986z" data-paper-data="{&quot;index&quot;:null}" fill="#000000"/><path d="M240.73466,175.13027l-0.46075,-0.02365l-0.81106,-0.10574l-0.06802,-0.35322l0.10332,-0.20065l0.04606,0.29186l0.31352,0.10156l0.36736,0.17043l-0.26405,-0.37105l0.46503,0.36193z" fill="#000000"/><path d="M237.93234,174.42461l0.55413,-0.12309l-0.37294,0.22175l0.39705,0.00872l0.32344,0.04771l0.14505,-0.24703l0.0241,0.23048l-0.18681,0.29347l-0.78139,-0.26742l-0.43105,-0.18531z" data-paper-data="{&quot;index&quot;:null}" fill="#000000"/><path d="M239.33029,178.58719l-0.11898,-0.11704" fill="none"/><path d="M238.69546,178.60182l0.15716,0.1392l-0.13244,0.58249" fill="none"/><path d="M238.43624,178.67479l0.12572,0.13886l-0.10507,0.4211" fill="none"/><path d="M238.19793,178.63379l-0.02471,0.18262l-0.07235,0.43807" fill="none"/><path d="M238.03482,178.56586l-0.00868,0.14566l-0.08681,0.47236" fill="none"/><path d="M237.78233,178.50669l-0.02618,0.16507l-0.07851,0.42735" fill="none"/><path d="M237.41174,179.0368l0.0992,-0.53982l0.04874,-0.11674" fill="none"/><path d="M237.27701,178.86448l0.0726,-0.54609l0.08996,-0.14456" fill="none"/><path d="M237.11571,178.68589l0.05941,-0.62825l0.09124,-0.08781" fill="none"/></g><g data-paper-data="{&quot;index&quot;:null}" stroke-linecap="round"><path d="M231.42352,186.88843l0.45484,0.07468l16.13585,1.13377l0.47869,-0.99316l0.3905,-0.70537l1.09491,1.03124l0.5482,-0.83056l-1.07131,-1.42579l-0.60363,0.16204l0.35351,-1.151l-0.15622,-2.56733l-0.6529,-2.47003l-2.35483,-5.41445l1.73036,1.93227l1.87861,2.36884l1.16861,1.92265l0.76847,3.18963l0.13276,2.96188l-0.20026,0.97014l0.95088,1.32362l-1.74638,1.26616l-1.46642,-0.7761l-13.759,-0.88165l-3.83432,-0.24392z" fill="none" stroke="#6ceeff" stroke-width="0.05"/><path d="M246.60298,187.98841l0.34292,0.75687l-15.92242,-0.99899l0.0657,-0.83096z" fill="#5c4037" stroke="#000000" stroke-width="0.05"/><path d="M246.54253,187.93732l1.47161,0.1112l0.8738,-1.59523l0.79637,0.50397l0.80734,-0.92696l-0.84605,-0.85782l-0.68273,0.39093l0.24214,-1.37989l-0.19346,-2.33984l-0.55074,-2.59075l-2.54491,-5.67922l3.67848,4.46372l1.21969,1.86221l0.70819,3.13871l0.26255,3.1754l-0.13842,1.11066l0.97162,1.3225l-1.83816,1.0154l-1.46182,-0.7204l-2.36747,-0.1408z" fill="url(#color-2)" stroke="#008cd1" stroke-width="0.15"/></g><path d="M239.05963,188.5038c-0.17271,0.18074 -1.51659,0.09327 -1.67151,-0.02212c-0.18999,-0.1415 -0.10668,-0.42365 -0.09754,-0.64496c0.01658,-0.40178 0.43839,-0.71066 0.94213,-0.68986c0.50374,0.02078 0.91841,0.36418 0.90182,0.76596c-0.00641,0.15529 0.03391,0.47712 -0.07489,0.59098z" data-paper-data="{&quot;index&quot;:null}" fill="#868686" stroke="#000000" stroke-width="0.25" stroke-linecap="butt"/><path d="M233.76821,188.11507c-0.17797,0.17557 -1.51868,0.0485 -1.67013,-0.07142c-0.18573,-0.14704 -0.09414,-0.42661 -0.07847,-0.64756c0.02842,-0.40112 0.45916,-0.69742 0.96206,-0.66177c0.5029,0.03563 0.90727,0.39111 0.87883,0.79223c-0.01099,0.15503 0.01982,0.47791 -0.09229,0.58852z" data-paper-data="{&quot;index&quot;:null}" fill="#868686" stroke="#000000" stroke-width="0.25" stroke-linecap="butt"/></g></g></svg>