<svg version="1.1" xmlns="http://www.w3.org/2000/svg" xmlns:xlink="http://www.w3.org/1999/xlink" width="18.31774" height="18.7505" viewBox="0,0,18.31774,18.7505"><defs><linearGradient x1="233.93685" y1="186.27134" x2="233.93685" y2="189.23861" gradientUnits="userSpaceOnUse" id="color-1"><stop offset="0" stop-color="#fa916b"/><stop offset="1" stop-color="#ffd0a9"/></linearGradient><linearGradient x1="233.93685" y1="186.27134" x2="233.93685" y2="189.23861" gradientUnits="userSpaceOnUse" id="color-2"><stop offset="0" stop-color="#fa916b"/><stop offset="1" stop-color="#ffd0a9"/></linearGradient><linearGradient x1="240.70767" y1="186.47966" x2="240.70767" y2="189.44694" gradientUnits="userSpaceOnUse" id="color-3"><stop offset="0" stop-color="#fa916b"/><stop offset="1" stop-color="#ffd0a9"/></linearGradient><linearGradient x1="240.70767" y1="186.47966" x2="240.70767" y2="189.44694" gradientUnits="userSpaceOnUse" id="color-4"><stop offset="0" stop-color="#fa916b"/><stop offset="1" stop-color="#ffd0a9"/></linearGradient><linearGradient x1="244.3967" y1="182.056" x2="241.87583" y2="184.46047" gradientUnits="userSpaceOnUse" id="color-5"><stop offset="0" stop-color="#fa916b"/><stop offset="1" stop-color="#ffd0a9"/></linearGradient><linearGradient x1="244.3967" y1="182.056" x2="241.87583" y2="184.46047" gradientUnits="userSpaceOnUse" id="color-6"><stop offset="0" stop-color="#fa916b"/><stop offset="1" stop-color="#ffd0a9"/></linearGradient><linearGradient x1="230.5675" y1="182.07834" x2="233.08837" y2="184.48281" gradientUnits="userSpaceOnUse" id="color-7"><stop offset="0" stop-color="#fa916b"/><stop offset="1" stop-color="#ffd0a9"/></linearGradient><linearGradient x1="230.5675" y1="182.07834" x2="233.08837" y2="184.48281" gradientUnits="userSpaceOnUse" id="color-8"><stop offset="0" stop-color="#fa916b"/><stop offset="1" stop-color="#ffd0a9"/></linearGradient><linearGradient x1="237.38569" y1="177.72966" x2="237.38569" y2="188.16223" gradientUnits="userSpaceOnUse" id="color-9"><stop offset="0" stop-color="#fa916b"/><stop offset="1" stop-color="#ffd0a9"/></linearGradient><linearGradient x1="237.38569" y1="177.72966" x2="237.38569" y2="188.16223" gradientUnits="userSpaceOnUse" id="color-10"><stop offset="0" stop-color="#fa916b"/><stop offset="1" stop-color="#ffd0a9"/></linearGradient><linearGradient x1="237.53226" y1="173.09282" x2="237.53226" y2="175.02954" gradientUnits="userSpaceOnUse" id="color-11"><stop offset="0" stop-color="#fa4949"/><stop offset="1" stop-color="#fa8b7d"/></linearGradient><linearGradient x1="237.53226" y1="173.09282" x2="237.53226" y2="175.02954" gradientUnits="userSpaceOnUse" id="color-12"><stop offset="0" stop-color="#fa4949"/><stop offset="1" stop-color="#fa8b7d"/></linearGradient><linearGradient x1="237.60291" y1="172.68937" x2="237.60291" y2="173.29388" gradientUnits="userSpaceOnUse" id="color-13"><stop offset="0" stop-color="#b24923"/><stop offset="1" stop-color="#c35c08"/></linearGradient><linearGradient x1="236.81686" y1="173.44051" x2="236.68778" y2="173.76601" gradientUnits="userSpaceOnUse" id="color-14"><stop offset="0" stop-color="#fafafa"/><stop offset="1" stop-color="#fabfb7"/></linearGradient><linearGradient x1="236.81686" y1="173.44051" x2="236.68778" y2="173.76601" gradientUnits="userSpaceOnUse" id="color-15"><stop offset="0" stop-color="#fafafa"/><stop offset="1" stop-color="#fabfb7"/></linearGradient><linearGradient x1="231.33995" y1="178.66974" x2="231.33995" y2="180.60646" gradientUnits="userSpaceOnUse" id="color-16"><stop offset="0" stop-color="#fa4949"/><stop offset="1" stop-color="#fa8b7d"/></linearGradient><linearGradient x1="231.33995" y1="178.66974" x2="231.33995" y2="180.60646" gradientUnits="userSpaceOnUse" id="color-17"><stop offset="0" stop-color="#fa4949"/><stop offset="1" stop-color="#fa8b7d"/></linearGradient><linearGradient x1="231.4106" y1="178.26628" x2="231.4106" y2="178.87082" gradientUnits="userSpaceOnUse" id="color-18"><stop offset="0" stop-color="#b24923"/><stop offset="1" stop-color="#c35c08"/></linearGradient><linearGradient x1="230.62455" y1="179.01743" x2="230.49547" y2="179.34293" gradientUnits="userSpaceOnUse" id="color-19"><stop offset="0" stop-color="#fafafa"/><stop offset="1" stop-color="#fabfb7"/></linearGradient><linearGradient x1="230.62455" y1="179.01743" x2="230.49547" y2="179.34293" gradientUnits="userSpaceOnUse" id="color-20"><stop offset="0" stop-color="#fafafa"/><stop offset="1" stop-color="#fabfb7"/></linearGradient><linearGradient x1="241.70837" y1="174.76893" x2="241.70837" y2="176.70566" gradientUnits="userSpaceOnUse" id="color-21"><stop offset="0" stop-color="#fa4949"/><stop offset="1" stop-color="#fa8b7d"/></linearGradient><linearGradient x1="241.70837" y1="174.76893" x2="241.70837" y2="176.70566" gradientUnits="userSpaceOnUse" id="color-22"><stop offset="0" stop-color="#fa4949"/><stop offset="1" stop-color="#fa8b7d"/></linearGradient><linearGradient x1="241.77902" y1="174.36549" x2="241.77902" y2="174.96999" gradientUnits="userSpaceOnUse" id="color-23"><stop offset="0" stop-color="#b24923"/><stop offset="1" stop-color="#c35c08"/></linearGradient><linearGradient x1="240.99297" y1="175.11662" x2="240.86389" y2="175.44214" gradientUnits="userSpaceOnUse" id="color-24"><stop offset="0" stop-color="#fafafa"/><stop offset="1" stop-color="#fabfb7"/></linearGradient><linearGradient x1="240.99297" y1="175.11662" x2="240.86389" y2="175.44214" gradientUnits="userSpaceOnUse" id="color-25"><stop offset="0" stop-color="#fafafa"/><stop offset="1" stop-color="#fabfb7"/></linearGradient><linearGradient x1="243.80149" y1="178.32358" x2="243.80149" y2="180.2603" gradientUnits="userSpaceOnUse" id="color-26"><stop offset="0" stop-color="#fa4949"/><stop offset="1" stop-color="#fa8b7d"/></linearGradient><linearGradient x1="243.80149" y1="178.32358" x2="243.80149" y2="180.2603" gradientUnits="userSpaceOnUse" id="color-27"><stop offset="0" stop-color="#fa4949"/><stop offset="1" stop-color="#fa8b7d"/></linearGradient><linearGradient x1="243.87214" y1="177.92012" x2="243.87214" y2="178.52466" gradientUnits="userSpaceOnUse" id="color-28"><stop offset="0" stop-color="#b24923"/><stop offset="1" stop-color="#c35c08"/></linearGradient><linearGradient x1="243.08609" y1="178.67128" x2="242.95701" y2="178.99678" gradientUnits="userSpaceOnUse" id="color-29"><stop offset="0" stop-color="#fafafa"/><stop offset="1" stop-color="#fabfb7"/></linearGradient><linearGradient x1="243.08609" y1="178.67128" x2="242.95701" y2="178.99678" gradientUnits="userSpaceOnUse" id="color-30"><stop offset="0" stop-color="#fafafa"/><stop offset="1" stop-color="#fabfb7"/></linearGradient><linearGradient x1="232.41687" y1="174.55434" x2="232.41687" y2="176.49109" gradientUnits="userSpaceOnUse" id="color-31"><stop offset="0" stop-color="#fa4949"/><stop offset="1" stop-color="#fa8b7d"/></linearGradient><linearGradient x1="232.41687" y1="174.55434" x2="232.41687" y2="176.49109" gradientUnits="userSpaceOnUse" id="color-32"><stop offset="0" stop-color="#fa4949"/><stop offset="1" stop-color="#fa8b7d"/></linearGradient><linearGradient x1="232.48752" y1="174.15091" x2="232.48752" y2="174.75543" gradientUnits="userSpaceOnUse" id="color-33"><stop offset="0" stop-color="#b24923"/><stop offset="1" stop-color="#c35c08"/></linearGradient><linearGradient x1="231.70147" y1="174.90203" x2="231.57239" y2="175.22757" gradientUnits="userSpaceOnUse" id="color-34"><stop offset="0" stop-color="#fafafa"/><stop offset="1" stop-color="#fabfb7"/></linearGradient><linearGradient x1="231.70147" y1="174.90203" x2="231.57239" y2="175.22757" gradientUnits="userSpaceOnUse" id="color-35"><stop offset="0" stop-color="#fafafa"/><stop offset="1" stop-color="#fabfb7"/></linearGradient><linearGradient x1="235.74885" y1="178.33573" x2="235.74885" y2="180.27246" gradientUnits="userSpaceOnUse" id="color-36"><stop offset="0" stop-color="#fa4949"/><stop offset="1" stop-color="#fa8b7d"/></linearGradient><linearGradient x1="235.74885" y1="178.33573" x2="235.74885" y2="180.27246" gradientUnits="userSpaceOnUse" id="color-37"><stop offset="0" stop-color="#fa4949"/><stop offset="1" stop-color="#fa8b7d"/></linearGradient><linearGradient x1="235.8195" y1="177.93229" x2="235.8195" y2="178.53679" gradientUnits="userSpaceOnUse" id="color-38"><stop offset="0" stop-color="#b24923"/><stop offset="1" stop-color="#c35c08"/></linearGradient><linearGradient x1="235.03346" y1="178.68342" x2="234.90438" y2="179.00894" gradientUnits="userSpaceOnUse" id="color-39"><stop offset="0" stop-color="#fafafa"/><stop offset="1" stop-color="#fabfb7"/></linearGradient><linearGradient x1="235.03346" y1="178.68342" x2="234.90438" y2="179.00894" gradientUnits="userSpaceOnUse" id="color-40"><stop offset="0" stop-color="#fafafa"/><stop offset="1" stop-color="#fabfb7"/></linearGradient><linearGradient x1="240.12943" y1="178.13734" x2="240.12943" y2="180.07409" gradientUnits="userSpaceOnUse" id="color-41"><stop offset="0" stop-color="#fa4949"/><stop offset="1" stop-color="#fa8b7d"/></linearGradient><linearGradient x1="240.12943" y1="178.13734" x2="240.12943" y2="180.07409" gradientUnits="userSpaceOnUse" id="color-42"><stop offset="0" stop-color="#fa4949"/><stop offset="1" stop-color="#fa8b7d"/></linearGradient><linearGradient x1="240.20006" y1="177.73389" x2="240.20006" y2="178.33843" gradientUnits="userSpaceOnUse" id="color-43"><stop offset="0" stop-color="#b24923"/><stop offset="1" stop-color="#c35c08"/></linearGradient><linearGradient x1="239.41403" y1="178.48503" x2="239.28494" y2="178.81056" gradientUnits="userSpaceOnUse" id="color-44"><stop offset="0" stop-color="#fafafa"/><stop offset="1" stop-color="#fabfb7"/></linearGradient><linearGradient x1="239.41403" y1="178.48503" x2="239.28494" y2="178.81056" gradientUnits="userSpaceOnUse" id="color-45"><stop offset="0" stop-color="#fafafa"/><stop offset="1" stop-color="#fabfb7"/></linearGradient></defs><g transform="translate(-228.19086,-170.94643)"><g data-paper-data="{&quot;isPaintingLayer&quot;:true}" fill-rule="nonzero" stroke-linejoin="miter" stroke-miterlimit="10" stroke-dasharray="" stroke-dashoffset="0" style="mix-blend-mode: normal"><path d="M233.03928,188.89912c0,-0.46319 0,-2.62778 0,-2.62778h1.79515c0,0 0,2.16037 0,2.63696c0,0.1816 -0.07498,0.27526 -0.07498,0.27526c0,0 -0.0338,0.05505 -0.19433,0.05505c-0.37458,0 -1.03095,0 -1.24459,0c-0.13293,0 -0.22626,-0.0734 -0.22626,-0.0734c0,0 -0.05498,-0.09961 -0.05498,-0.26609z" data-paper-data="{&quot;index&quot;:null}" fill="url(#color-1)" stroke="url(#color-2)" stroke-width="0.5" stroke-linecap="butt"/><path d="M239.81011,189.10744c0,-0.46319 0,-2.62778 0,-2.62778h1.79514c0,0 0,2.16036 0,2.63696c0,0.18159 -0.07498,0.27526 -0.07498,0.27526c0,0 -0.0338,0.05505 -0.19433,0.05505c-0.37458,0 -1.03095,0 -1.2446,0c-0.13293,0 -0.22626,-0.0734 -0.22626,-0.0734c0,0 -0.05498,-0.0996 -0.05498,-0.26609z" data-paper-data="{&quot;index&quot;:null}" fill="url(#color-3)" stroke="url(#color-4)" stroke-width="0.5" stroke-linecap="butt"/><path d="M244.3967,182.056c0.35704,0.37433 0.08217,1.21604 -0.61395,1.88002c-0.69612,0.66398 -1.54987,0.89879 -1.90692,0.52446c-0.35704,-0.37433 -0.08217,-1.21604 0.61395,-1.88002c0.69612,-0.66398 1.54988,-0.89879 1.90692,-0.52446z" data-paper-data="{&quot;index&quot;:null}" fill="url(#color-5)" stroke="url(#color-6)" stroke-width="0.5" stroke-linecap="butt"/><path d="M232.47442,182.60279c0.69612,0.66398 0.97099,1.50569 0.61395,1.88002c-0.35704,0.37433 -1.2108,0.13952 -1.90692,-0.52446c-0.69612,-0.66398 -0.97099,-1.50569 -0.61395,-1.88002c0.35704,-0.37433 1.2108,-0.13952 1.90692,0.52446z" fill="url(#color-7)" stroke="url(#color-8)" stroke-width="0.5" stroke-linecap="butt"/><path d="M232.1365,186.96862c0,-1.62851 0,-9.23895 0,-9.23895h10.4984c0,0 0,7.59557 0,9.27121c0,0.63847 -0.43848,0.96779 -0.43848,0.96779c0,0 -0.19767,0.19355 -1.13648,0.19355c-2.19063,0 -6.02921,0 -7.27866,0c-0.77741,0 -1.32324,-0.25806 -1.32324,-0.25806c0,0 -0.32154,-0.3502 -0.32154,-0.93554z" data-paper-data="{&quot;index&quot;:null}" fill="url(#color-9)" stroke="url(#color-10)" stroke-width="0.5" stroke-linecap="butt"/><g fill="#6bfa96" stroke="#6bfa96" stroke-width="0.5" stroke-linecap="butt"><g data-paper-data="{&quot;index&quot;:null}"><path d="M235.76605,178.47053c-1.25836,0 -2.27847,-0.86526 -2.27847,-1.93261c0,-1.06735 1.02011,-1.9326 2.27847,-1.9326c1.25836,0 2.27847,0.86526 2.27847,1.9326c0,1.06735 -1.02011,1.93261 -2.27847,1.93261z"/><path d="M231.76333,178.47053c-1.25836,0 -2.27847,-0.86526 -2.27847,-1.93261c0,-1.06735 1.02011,-1.9326 2.27847,-1.9326c1.25836,0 2.27847,0.86526 2.27847,1.9326c0,1.06735 -1.02011,1.93261 -2.27847,1.93261z"/></g><g data-paper-data="{&quot;index&quot;:null}"><path d="M242.97093,178.47053c-1.25836,0 -2.27846,-0.86526 -2.27846,-1.93261c0,-1.06735 1.0201,-1.9326 2.27846,-1.9326c1.25836,0 2.27847,0.86526 2.27847,1.9326c0,1.06735 -1.02011,1.93261 -2.27847,1.93261z"/><path d="M238.96822,178.47053c-1.25836,0 -2.27847,-0.86526 -2.27847,-1.93261c0,-1.06735 1.02011,-1.9326 2.27847,-1.9326c1.25836,0 2.27847,0.86526 2.27847,1.9326c0,1.06735 -1.02011,1.93261 -2.27847,1.93261z"/></g><path d="M240.71078,176.86899c-1.45056,0 -2.62647,-0.99741 -2.62647,-2.22779c0,-1.23037 1.17591,-2.22779 2.62647,-2.22779c1.45056,0 2.62647,0.99742 2.62647,2.22779c0,1.23037 -1.17592,2.22779 -2.62647,2.22779z"/><path d="M233.7054,176.75836c-1.45056,0 -2.62647,-0.99742 -2.62647,-2.22779c0,-1.23037 1.17592,-2.22779 2.62647,-2.22779c1.45056,0 2.62647,0.99742 2.62647,2.22779c0,1.23037 -1.17592,2.22779 -2.62647,2.22779z"/><path d="M237.18366,175.65201c-1.45056,0 -2.62647,-0.99742 -2.62647,-2.22779c0,-1.23037 1.17592,-2.22779 2.62647,-2.22779c1.45056,0 2.62647,0.99741 2.62647,2.22779c0,1.23037 -1.17592,2.22779 -2.62647,2.22779z"/></g><g stroke-width="0.15"><g><path d="M236.46273,173.95923c0,-0.24245 0.08067,-0.46605 0.21663,-0.64544c0.19529,-0.25767 0.50466,-0.21484 0.8529,-0.21484c0.33244,0 0.62945,-0.05759 0.82561,0.18033c0.15239,0.18482 0.24392,0.4217 0.24392,0.67996c0,0.3258 -0.07593,0.73382 -0.30569,0.92999c-0.18681,0.15949 -0.49895,0.13953 -0.76385,0.13953c-0.30092,0 -0.64256,-0.00802 -0.83691,-0.20804c-0.18714,-0.19261 -0.23263,-0.57172 -0.23263,-0.86148z" fill="url(#color-11)" stroke="url(#color-12)" stroke-linecap="butt"/><path d="M237.50902,173.27065c0,0 0.00466,-0.16641 0.0194,-0.24008c0.02144,-0.10721 0.13262,-0.34119 0.13262,-0.34119" fill="none" stroke="url(#color-13)" stroke-linecap="round"/><path d="M237.88803,173.26346l-0.12519,0.10731l-0.16097,0.03576l-0.23251,-0.01789l-0.14308,-0.03577l-0.08943,-0.12519" fill="none" stroke="#783410" stroke-linecap="round"/></g><path d="M236.80637,173.70619c-0.05895,0.07038 -0.13095,0.08136 -0.1608,0.02452c-0.02985,-0.05684 -0.00626,-0.15998 0.05269,-0.23036c0.05895,-0.07038 0.13095,-0.08136 0.1608,-0.02452c0.02985,0.05684 0.00626,0.15998 -0.0527,0.23036z" fill="url(#color-14)" stroke="url(#color-15)" stroke-linecap="butt"/></g><g><g stroke="#000000"><path d="M235.04695,182.43264c0.1135,0.15955 -0.06561,0.45987 -0.3923,0.69227c-0.32669,0.23241 -0.68354,0.29148 -0.79703,0.13193c-0.1135,-0.15955 0.05931,-0.4773 0.38601,-0.70971c0.32669,-0.23241 0.68353,-0.29148 0.79704,-0.13193z" fill="#000000" stroke-width="0.75" stroke-linecap="butt"/><path d="M238.89366,182.37329c0.11351,-0.15955 0.47035,-0.10048 0.79704,0.13193c0.3267,0.23241 0.49951,0.55015 0.38601,0.7097c-0.1135,0.15955 -0.47034,0.10048 -0.79703,-0.13193c-0.32669,-0.23241 -0.5058,-0.53273 -0.3923,-0.69228z" data-paper-data="{&quot;index&quot;:null}" fill="#000000" stroke-width="0.75" stroke-linecap="butt"/><path d="M238.3828,184.79029l0.16589,0.32778l-0.11849,0.25494l-0.23699,0.01821l-0.19945,-0.21488l-0.13233,0.2513l-0.23699,-0.01821l-0.16589,-0.16389l-0.11849,-0.10925l-0.14772,0.21484l-0.21613,0.11072h-0.04851l-0.21613,-0.11072l-0.14772,-0.21484l-0.11849,0.10925l-0.16589,0.16389l-0.23699,0.01821l-0.13233,-0.23746l-0.19945,0.20104l-0.23699,-0.01821l-0.11849,-0.25494l0.1659,-0.32778" fill="none" stroke-width="0.35" stroke-linecap="round"/></g><g fill="none" stroke="#ff86de" stroke-width="0.5" stroke-linecap="round"><path d="M232.53623,184.37006l-0.02844,0.56892"/><path d="M232.96293,184.37006v0.59736"/></g><g fill="none" stroke="#ff86de" stroke-width="0.5" stroke-linecap="round"><path d="M240.93109,184.88167l0.02845,-0.56892"/><path d="M241.38623,184.9101v-0.59737"/></g></g><g data-paper-data="{&quot;index&quot;:null}" fill="#6bfa96" stroke="#6bfa96" stroke-width="0.5" stroke-linecap="butt"><g data-paper-data="{&quot;index&quot;:null}"><path d="M235.54012,181.59943c-1.42226,0 -2.57522,-0.97795 -2.57522,-2.18432c0,-1.20637 1.15296,-2.18432 2.57522,-2.18432c1.42226,0 2.57523,0.97795 2.57523,2.18432c0,1.20637 -1.15297,2.18432 -2.57523,2.18432z"/><path d="M231.01608,181.59944c-1.42226,0 -2.57522,-0.97796 -2.57522,-2.18433c0,-1.20637 1.15296,-2.18432 2.57522,-2.18432c1.42226,0 2.57522,0.97795 2.57522,2.18432c0,1.20637 -1.15297,2.18433 -2.57522,2.18433z"/></g><g data-paper-data="{&quot;index&quot;:null}"><path d="M243.68338,181.59943c-1.42226,0 -2.57522,-0.97795 -2.57522,-2.18432c0,-1.20637 1.15296,-2.18432 2.57522,-2.18432c1.42226,0 2.57522,0.97795 2.57522,2.18432c0,1.20637 -1.15297,2.18432 -2.57522,2.18432z"/><path d="M239.15933,181.59944c-1.42226,0 -2.57522,-0.97796 -2.57522,-2.18433c0,-1.20637 1.15296,-2.18432 2.57522,-2.18432c1.42226,0 2.57523,0.97795 2.57523,2.18432c0,1.20637 -1.15297,2.18433 -2.57523,2.18433z"/></g></g><g stroke-width="0.15"><g><path d="M230.27042,179.53614c0,-0.24244 0.08067,-0.46605 0.21663,-0.64543c0.19529,-0.25766 0.50466,-0.21484 0.8529,-0.21484c0.33243,0 0.62945,-0.05759 0.82561,0.18033c0.15239,0.18482 0.24392,0.4217 0.24392,0.67995c0,0.3258 -0.07592,0.73383 -0.30569,0.93c-0.18681,0.1595 -0.49896,0.13954 -0.76385,0.13954c-0.30092,0 -0.64257,-0.00802 -0.83691,-0.20805c-0.18714,-0.19261 -0.23262,-0.57172 -0.23262,-0.86149z" fill="url(#color-16)" stroke="url(#color-17)" stroke-linecap="butt"/><path d="M231.31671,178.84757c0,0 0.00467,-0.16641 0.0194,-0.24008c0.02144,-0.10721 0.13262,-0.34119 0.13262,-0.34119" fill="none" stroke="url(#color-18)" stroke-linecap="round"/><path d="M231.69573,178.84035l-0.1252,0.10731l-0.16097,0.03577l-0.23251,-0.01788l-0.14308,-0.03577l-0.08943,-0.1252" fill="none" stroke="#783410" stroke-linecap="round"/></g><path d="M230.61406,179.28311c-0.05896,0.07038 -0.13095,0.08135 -0.1608,0.02451c-0.02985,-0.05684 -0.00626,-0.15998 0.0527,-0.23035c0.05896,-0.07038 0.13095,-0.08136 0.1608,-0.02451c0.02985,0.05684 0.00626,0.15998 -0.0527,0.23036z" fill="url(#color-19)" stroke="url(#color-20)" stroke-linecap="butt"/></g><g stroke-width="0.15"><g><path d="M240.63884,175.63534c0,-0.24245 0.08067,-0.46605 0.21663,-0.64543c0.19529,-0.25767 0.50466,-0.21484 0.85291,-0.21484c0.33244,0 0.62945,-0.05759 0.82561,0.18033c0.15239,0.18482 0.24392,0.4217 0.24392,0.67995c0,0.3258 -0.07593,0.73383 -0.30569,0.93c-0.18681,0.15949 -0.49895,0.13953 -0.76385,0.13953c-0.30092,0 -0.64257,-0.00802 -0.83691,-0.20804c-0.18714,-0.19261 -0.23262,-0.57172 -0.23262,-0.86149z" fill="url(#color-21)" stroke="url(#color-22)" stroke-linecap="butt"/><path d="M241.68513,174.94673c0,0 0.00466,-0.16641 0.0194,-0.24008c0.02144,-0.1072 0.13262,-0.34118 0.13262,-0.34118" fill="none" stroke="url(#color-23)" stroke-linecap="round"/><path d="M242.06413,174.93955l-0.12519,0.10731l-0.16097,0.03576l-0.23251,-0.01788l-0.14308,-0.03577l-0.08942,-0.12519" fill="none" stroke="#783410" stroke-linecap="round"/></g><path d="M240.98248,175.3823c-0.05895,0.07038 -0.13095,0.08136 -0.1608,0.02452c-0.02985,-0.05684 -0.00626,-0.15998 0.05269,-0.23036c0.05895,-0.07038 0.13096,-0.08136 0.16081,-0.02452c0.02985,0.05684 0.00625,0.15998 -0.0527,0.23036z" fill="url(#color-24)" stroke="url(#color-25)" stroke-linecap="butt"/></g><g stroke-width="0.15"><g><path d="M242.73196,179.18999c0,-0.24245 0.08067,-0.46605 0.21663,-0.64543c0.19529,-0.25767 0.50466,-0.21484 0.8529,-0.21484c0.33244,0 0.62945,-0.05759 0.82561,0.18032c0.15239,0.18482 0.24392,0.4217 0.24392,0.67996c0,0.3258 -0.07593,0.73382 -0.30569,0.92999c-0.18681,0.15949 -0.49895,0.13954 -0.76385,0.13954c-0.30092,0 -0.64256,-0.00802 -0.83691,-0.20805c-0.18714,-0.19261 -0.23263,-0.57172 -0.23263,-0.86148z" fill="url(#color-26)" stroke="url(#color-27)" stroke-linecap="butt"/><path d="M243.77825,178.5014c0,0 0.00466,-0.16641 0.0194,-0.24008c0.02144,-0.1072 0.13262,-0.34118 0.13262,-0.34118" fill="none" stroke="url(#color-28)" stroke-linecap="round"/><path d="M244.15726,178.49424l-0.12519,0.10731l-0.16097,0.03576l-0.23251,-0.01789l-0.14308,-0.03577l-0.08943,-0.1252" fill="none" stroke="#783410" stroke-linecap="round"/></g><path d="M243.0756,178.93695c-0.05895,0.07038 -0.13095,0.08136 -0.1608,0.02452c-0.02985,-0.05684 -0.00626,-0.15998 0.05269,-0.23036c0.05895,-0.07038 0.13095,-0.08135 0.1608,-0.02451c0.02985,0.05684 0.00626,0.15997 -0.0527,0.23035z" fill="url(#color-29)" stroke="url(#color-30)" stroke-linecap="butt"/></g><g stroke-width="0.15"><g><path d="M231.34734,175.42074c0,-0.24245 0.08067,-0.46605 0.21663,-0.64543c0.19529,-0.25767 0.50466,-0.21484 0.8529,-0.21484c0.33244,0 0.62945,-0.05759 0.82561,0.18032c0.15239,0.18482 0.24392,0.4217 0.24392,0.67996c0,0.3258 -0.07593,0.73382 -0.30569,0.92999c-0.18681,0.15949 -0.49895,0.13954 -0.76385,0.13954c-0.30092,0 -0.64256,-0.00802 -0.83691,-0.20804c-0.18714,-0.19261 -0.23262,-0.57172 -0.23262,-0.86149z" fill="url(#color-31)" stroke="url(#color-32)" stroke-linecap="butt"/><path d="M232.39362,174.73217c0,0 0.00466,-0.16641 0.0194,-0.24008c0.02144,-0.1072 0.13263,-0.34118 0.13263,-0.34118" fill="none" stroke="url(#color-33)" stroke-linecap="round"/><path d="M232.77264,174.725l-0.1252,0.10731l-0.16096,0.03576l-0.23251,-0.01789l-0.14308,-0.03577l-0.08943,-0.12519" fill="none" stroke="#783410" stroke-linecap="round"/></g><path d="M231.69098,175.16771c-0.05895,0.07038 -0.13095,0.08135 -0.1608,0.02451c-0.02985,-0.05684 -0.00626,-0.15998 0.05269,-0.23036c0.05895,-0.07038 0.13096,-0.08135 0.16081,-0.02451c0.02985,0.05684 0.00625,0.15998 -0.0527,0.23036z" fill="url(#color-34)" stroke="url(#color-35)" stroke-linecap="butt"/></g><g stroke-width="0.15"><g><path d="M234.67933,179.20214c0,-0.24245 0.08067,-0.46605 0.21663,-0.64543c0.19529,-0.25767 0.50466,-0.21484 0.85291,-0.21484c0.33244,0 0.62945,-0.05759 0.82561,0.18032c0.15239,0.18482 0.24392,0.4217 0.24392,0.67996c0,0.3258 -0.07593,0.73382 -0.30569,0.92999c-0.18681,0.15949 -0.49895,0.13954 -0.76385,0.13954c-0.30092,0 -0.64257,-0.00802 -0.83691,-0.20804c-0.18714,-0.19261 -0.23262,-0.57172 -0.23262,-0.86149z" fill="url(#color-36)" stroke="url(#color-37)" stroke-linecap="butt"/><path d="M235.72562,178.51355c0,0 0.00466,-0.16641 0.0194,-0.24008c0.02144,-0.1072 0.13262,-0.34118 0.13262,-0.34118" fill="none" stroke="url(#color-38)" stroke-linecap="round"/><path d="M236.10462,178.50635l-0.12519,0.10731l-0.16097,0.03576l-0.23251,-0.01789l-0.14308,-0.03577l-0.08942,-0.12519" fill="none" stroke="#783410" stroke-linecap="round"/></g><path d="M235.02297,178.9491c-0.05895,0.07038 -0.13095,0.08135 -0.1608,0.02451c-0.02985,-0.05684 -0.00626,-0.15998 0.05269,-0.23036c0.05895,-0.07038 0.13096,-0.08135 0.16081,-0.02451c0.02985,0.05684 0.00625,0.15998 -0.0527,0.23036z" fill="url(#color-39)" stroke="url(#color-40)" stroke-linecap="butt"/></g><g stroke-width="0.15"><g><path d="M239.05989,179.00375c0,-0.24245 0.08067,-0.46605 0.21663,-0.64543c0.19529,-0.25767 0.50466,-0.21485 0.8529,-0.21485c0.33244,0 0.62945,-0.05759 0.82561,0.18033c0.15239,0.18482 0.24392,0.4217 0.24392,0.67996c0,0.3258 -0.07593,0.73382 -0.30569,0.92999c-0.18681,0.15949 -0.49895,0.13953 -0.76385,0.13953c-0.30092,0 -0.64256,-0.00802 -0.83691,-0.20804c-0.18714,-0.19261 -0.23263,-0.57172 -0.23263,-0.86148z" fill="url(#color-41)" stroke="url(#color-42)" stroke-linecap="butt"/><path d="M240.10617,178.31517c0,0 0.00466,-0.16641 0.0194,-0.24008c0.02144,-0.1072 0.13263,-0.34118 0.13263,-0.34118" fill="none" stroke="url(#color-43)" stroke-linecap="round"/><path d="M240.4852,178.308l-0.1252,0.10731l-0.16096,0.03576l-0.23251,-0.01789l-0.14308,-0.03577l-0.08943,-0.1252" fill="none" stroke="#783410" stroke-linecap="round"/></g><path d="M239.40354,178.7507c-0.05895,0.07038 -0.13095,0.08136 -0.1608,0.02452c-0.02985,-0.05684 -0.00626,-0.15998 0.05269,-0.23036c0.05895,-0.07038 0.13096,-0.08136 0.16081,-0.02452c0.02985,0.05684 0.00625,0.15998 -0.0527,0.23036z" fill="url(#color-44)" stroke="url(#color-45)" stroke-linecap="butt"/></g></g></g></svg>